<?xml version="1.0" encoding="utf-8" ?>
<svg xmlns="http://www.w3.org/2000/svg" xmlns:xlink="http://www.w3.org/1999/xlink" width="512" height="512">
	<path d="M414.999 341.347C416.582 341.357 418.188 341.388 419.75 341.669C425.205 342.649 430.432 345.878 433.518 350.515C435.193 353.033 436.346 355.622 436.944 358.61C437.732 362.55 437.296 367.236 437.298 371.251L437.288 394.457L457.682 394.586C463.51 394.585 470.171 393.953 475.768 395.706C481.337 397.451 485.97 401.567 488.594 406.757C490.88 411.281 491.28 417.584 489.655 422.371L489.524 422.75C488.357 426.313 486.204 429.504 483.376 431.97C480.982 434.058 478.118 435.787 475.032 436.619C471.21 437.65 467.234 437.466 463.318 437.472L450.695 437.478C446.27 437.479 441.744 437.766 437.336 437.492L437.258 461.948C437.257 465.678 437.62 469.85 436.85 473.492C436.134 476.88 434.758 479.941 432.572 482.625C428.59 487.515 423.281 490.166 417.03 490.777L416.375 490.795C410.52 490.842 405.037 488.448 400.893 484.375C398.13 481.659 396.191 478.349 395.255 474.58C394.074 469.821 394.595 463.974 394.6 459.071L394.538 437.556L375.554 437.481C369.744 437.473 363.741 437.885 358.016 436.807C353.006 435.864 347.87 432.297 345.054 428.065C344.088 426.613 343.354 425.246 342.708 423.625L342.432 422.914C340.647 417.794 341.047 411.494 343.472 406.641C345.924 401.733 350.134 397.61 355.417 395.901C361.978 393.778 369.697 394.568 376.536 394.568L394.564 394.617L394.66 372.151C394.668 367.601 394.349 362.793 395.151 358.3C395.535 356.144 396.413 354.156 397.433 352.234C398.107 350.964 398.865 349.891 399.796 348.791C403.766 344.101 408.945 341.822 414.999 341.347Z"/>
	<path d="M329.51 159.337C334.664 159.039 339.422 160.242 343.709 163.147C348.164 166.167 351.441 171.328 352.37 176.611C353.358 182.228 352.199 188.092 348.885 192.753C346.793 195.696 343.951 198.218 341.402 200.767L329.977 212.182L288.766 253.394L224.418 317.736L204.566 337.577C201.154 340.991 197.808 344.752 194.14 347.874C190.963 350.578 187.102 352.02 183.04 352.712C180.816 352.849 178.564 352.908 176.379 352.404C170.267 350.995 165.279 347.502 162.038 342.112C159.35 337.641 158.515 331.376 159.865 326.354L159.996 325.875C160.709 323.217 161.984 320.393 163.736 318.251C166.41 314.983 169.695 312.063 172.688 309.07L189.188 292.57L242.25 239.508L293.505 188.25L309.444 172.312C312.392 169.365 315.266 166.129 318.501 163.508C321.631 160.973 325.575 159.803 329.51 159.337Z"/>
	<path d="M333.986 51.3813C346.138 50.8952 357.942 52.3689 369.608 55.7937C384.627 60.2031 398.626 68.2085 410.29 78.6132L423.454 91.5744L433.511 101.871C439.062 108.125 443.851 114.934 447.855 122.275C461.185 146.713 464.256 176.289 456.396 202.979C452.979 214.584 447.634 225.515 440.573 235.341C438.181 238.669 435.601 241.872 432.83 244.893L419.862 258.061L398.022 279.901L380.207 297.715L372.338 305.591C369.553 308.37 366.948 311.006 363.432 312.875C358.493 315.501 352.702 315.552 347.452 313.97C346.445 313.667 345.463 313.286 344.523 312.811C339.697 310.372 335.502 305.957 333.876 300.732L333.728 300.25L333.137 297.938C332.221 292.493 333.08 287.211 335.904 282.471C337.49 279.81 339.951 277.516 342.129 275.337L350.743 266.738L385.217 232.264C392.42 225.061 400.642 217.934 406.5 209.606C411.883 202.066 415.557 192.894 417.112 183.778C419.991 166.899 415.851 149.548 405.946 135.625C402.182 130.334 397.394 125.844 392.824 121.265C388.003 116.434 383.28 111.342 377.875 107.153C370.133 101.154 360.264 96.6406 350.583 95.0443C332.183 92.0106 313.222 96.3788 298.668 108.228C291.48 114.081 285.083 121.312 278.509 127.86L246.379 159.98L236.989 169.386C234.91 171.462 232.853 173.736 230.445 175.429C225.64 178.807 220.065 179.88 214.314 178.888C208.656 177.912 203.731 174.497 200.507 169.788C197.251 165.032 196.474 159.482 197.415 153.875C198.051 150.087 199.852 146.385 202.445 143.547L215.364 130.578L238.734 107.196L257.226 88.7047C260.993 84.9384 264.701 80.9376 268.75 77.4741C286.98 61.8797 309.972 52.4384 333.986 51.3813Z"/>
	<path d="M155.914 197.088C160.057 196.753 164.341 197.464 168 199.496C172.635 202.071 176.754 206.384 178.175 211.607C179.815 217.637 179.496 223.393 176.402 228.922C174.733 231.905 172.057 234.318 169.665 236.715L161.203 245.179L127.184 279.19C120.513 285.843 113.077 292.365 107.301 299.814C103.66 304.51 100.8 309.61 98.5804 315.113C92.3248 330.626 92.4173 348.748 99.1001 364.125C101.448 369.526 104.508 374.721 108.246 379.281C111.717 383.515 115.826 387.304 119.696 391.171C123.963 395.434 128.114 400.012 132.795 403.83C138.111 408.165 144.282 411.572 150.684 413.994C171.179 421.748 194.69 418.021 212.004 404.7C215.85 401.741 219.315 398.176 222.737 394.744L234.805 382.676L266.495 350.986L274.719 342.753C277.853 339.614 280.81 336.402 284.925 334.564C289.954 332.317 296.098 332.143 301.234 334.127C306.275 336.074 310.764 339.875 312.961 344.886L313.125 345.269C315.109 349.774 315.682 355.142 314.185 359.894L314.068 360.25C311.653 367.899 304.542 373.348 299.053 378.851L264.391 413.505C257.874 420.022 251.513 426.944 244.632 433.066C229.096 446.889 209.906 456.487 189.247 459.582C160.938 463.824 132.269 456.572 109.277 439.579C102.142 434.306 96.0717 428.014 89.8282 421.751C85.0243 416.933 80.1058 412.23 75.7512 406.99C63.4105 392.139 55.2235 373.781 52.4251 354.675C48.3276 326.699 55.5347 297.698 72.5051 275.036C78.774 266.665 86.3964 259.533 93.7706 252.16L121.623 224.317L136.399 209.534C139.187 206.732 142.04 203.333 145.244 201.029C148.574 198.635 151.898 197.658 155.914 197.088Z"/>
</svg>
