<?xml version="1.0" encoding="utf-8" ?>
<svg xmlns="http://www.w3.org/2000/svg" xmlns:xlink="http://www.w3.org/1999/xlink" width="512" height="512">
	<path d="M94.1586 104.321L95.8006 104.191C98.3844 104.07 100.423 105.269 102.25 106.967L111.318 116.01C113.834 118.518 117.071 121.1 118.942 124.116C119.569 125.127 119.977 126.761 119.966 127.943C119.952 129.342 119.488 131.076 118.72 132.235C117.087 134.7 114.344 136.915 112.253 139.012L101.738 149.508C99.8051 151.319 97.9671 152.145 95.2934 152.026C92.9368 151.922 90.9606 150.694 89.447 148.916C88.081 147.311 87.8544 145.27 88.025 143.25C88.2818 140.209 90.426 138.014 92.6438 136.151L65.375 136.105L42.8462 136.116C38.8226 136.117 34.1936 136.58 30.2543 135.786C28.8263 135.498 27.5766 134.864 26.4975 133.892C25.0745 132.609 24.1316 130.838 24.0343 128.908C23.9103 126.45 24.6449 124.069 26.3833 122.284C27.7789 120.851 29.2447 120.374 31.1948 120.128C33.4085 119.847 35.7645 119.989 38.0011 119.987L49.558 119.991L92.6082 119.945L92.3333 119.64C90.8146 118.143 89.2507 116.958 88.5067 114.875C87.7849 112.854 88.0195 110.236 89.0394 108.331C90.2455 106.078 91.8131 105.065 94.1586 104.321Z"/>
	<path d="M462.17 360.32L464.375 360.178C465.856 360.25 467.405 360.758 468.625 361.608C471.643 363.71 474.341 367.022 476.955 369.645C479.81 372.511 482.872 375.278 485.579 378.277C487.069 379.929 488.12 382.097 487.944 384.375C487.843 385.669 487.435 387.156 486.72 388.235C484.937 390.926 481.881 393.379 479.596 395.671C476.211 399.067 472.901 402.741 469.306 405.9C467.402 407.572 465.546 408.18 463.028 408.014C460.697 407.86 458.771 406.535 457.316 404.758C456.048 403.211 455.826 401.049 456.034 399.125C456.357 396.13 458.446 393.998 460.644 392.151L433.375 392.105L410.846 392.116C406.822 392.117 402.194 392.58 398.254 391.786C396.826 391.498 395.577 390.864 394.497 389.892C393.073 388.612 392.132 386.837 392.034 384.908C391.91 382.449 392.644 380.07 394.383 378.284C395.78 376.85 397.244 376.376 399.195 376.128C401.422 375.844 403.787 375.988 406.037 375.987L417.465 375.992L460.609 375.946L460.334 375.64C458.707 374.037 457.163 372.864 456.421 370.599C455.792 368.68 456.063 366.146 457.019 364.357C458.231 362.089 459.81 361.054 462.17 360.32Z"/>
	<path d="M92.0527 248.101L104.992 247.988C107.568 247.987 110.403 247.778 112.948 248.169C115.248 248.523 117.151 249.503 118.515 251.439C119.682 253.094 120.208 255.266 119.819 257.262C119.273 260.067 117.472 262.559 114.705 263.551C111.886 264.562 107.741 264.083 104.737 264.084C98.544 264.086 92.3899 264.045 86.25 264.997C78.2628 266.236 70.4764 269.569 63.8526 274.151C51.4646 282.721 43.4348 296.021 40.8199 310.75C38.2796 325.058 41.8501 340.308 50.2008 352.158C60.8504 367.269 77.4282 375.448 95.7669 375.947L106.875 375.987C108.917 375.989 111.199 375.832 113.207 376.216C116.057 376.762 117.561 378.014 119.173 380.355C119.868 382.617 120.197 384.157 119.518 386.5C118.952 388.452 117.37 390.207 115.587 391.146C112.779 392.626 108.154 392.096 105.02 392.11C96.9462 392.145 87.9193 392.521 80.0896 390.276C76.8303 389.341 73.6736 388.58 70.4844 387.377C62.7219 384.449 55.5207 380.114 49.2039 374.755C35.2481 362.915 25.7859 345.172 24.3084 326.865C22.6752 306.629 28.7866 287.427 42.1613 272.056C54.8409 257.485 72.9761 249.422 92.0527 248.101Z"/>
	<path d="M399.401 120.076L417.098 120.023C436.4 120.301 454.648 128.366 468.038 142.248C481.26 155.956 488.399 174.719 487.992 193.73C487.589 212.541 479.429 230.943 465.833 243.93C454.736 254.53 440.252 261.635 425 263.542C417.191 264.519 408.75 264.279 400.878 264.07L398.792 263.875C396.595 263.53 394.558 262.414 393.291 260.549C392.059 258.735 391.749 256.564 392.223 254.448C392.777 251.971 394.328 249.51 396.834 248.625C399.938 247.529 404.164 247.997 407.422 247.995C413.613 247.99 419.839 248.069 425.969 247.051C432.994 245.884 439.927 243.028 445.918 239.205C458.902 230.92 467.534 218.134 470.816 203.133C473.892 189.078 470.745 173.647 462.98 161.625C454.683 148.779 442.038 140.582 427.25 137.25C423.758 136.464 419.947 136.215 416.375 136.146L407.184 136.109C403.568 136.129 398.739 136.7 395.545 134.703C393.803 133.613 392.475 131.743 392.111 129.717C391.738 127.633 392.3 124.985 393.53 123.287C395.143 121.061 396.838 120.506 399.401 120.076Z"/>
	<path d="M143.41 216.076C147.277 215.839 151.223 215.985 155.1 215.984L175.383 215.981L238.715 215.979L323.919 215.984L351.84 215.988L367.143 216.03C368.904 216.088 370.662 216.326 372.196 217.255C374.073 218.392 375.226 220.071 375.711 222.188C376.403 225.21 376.014 228.945 376.016 232.051L376.024 248.892L376.02 274.669C376.018 279.107 376.265 283.704 375.956 288.125C375.854 289.588 375.473 291.122 374.656 292.353C373.205 294.54 371.398 295.447 368.933 295.946L328.783 296.084L253.391 296.085L180.731 296.082L157.277 296.083L144.919 296.072C142.992 295.985 141.224 295.76 139.55 294.713C137.851 293.649 136.629 291.982 136.238 290.003C135.701 287.286 136.009 284.051 136.006 281.277L135.996 265.282L135.999 237.839C136 233.23 135.757 228.468 136.067 223.875C136.179 222.224 136.534 220.645 137.52 219.287C139.14 217.056 140.84 216.506 143.41 216.076Z"/>
	<path d="M143.411 88.0775C147.217 87.8344 151.11 87.9839 154.927 87.9832L175.099 87.9805L237.841 87.9782L323.507 87.9829L351.847 87.9862L367.143 88.0297C368.905 88.0886 370.656 88.3308 372.192 89.2586C374.106 90.415 375.261 92.1294 375.735 94.2836C376.376 97.201 376.014 100.745 376.016 103.738L376.024 120.409L376.02 146.567C376.019 151.039 376.265 155.671 375.958 160.125C375.855 161.618 375.464 163.148 374.622 164.399C373.178 166.546 371.318 167.483 368.877 167.959L355.642 168.102L334.71 168.105L270.188 168.108L187.009 168.107L160.431 168.111L145.47 168.096C143.356 168.022 141.39 167.863 139.55 166.71C137.816 165.625 136.572 163.9 136.207 161.872C135.715 159.138 136.008 155.947 136.005 153.164L135.996 137.203L135.998 109.821C136 105.218 135.756 100.462 136.067 95.875C136.179 94.2191 136.539 92.6533 137.526 91.2906C139.142 89.0603 140.846 88.5131 143.411 88.0775ZM152.078 104L152.017 151.917L359.963 151.962L360.054 104.183L306.116 104.103L211.057 104.101L170.133 104.105L159.194 104.113C156.829 104.14 154.426 104.338 152.078 104Z"/>
	<path d="M143.412 344.077L157.254 343.982L181.225 343.979L254.844 343.978L329.882 343.984L354.114 343.987L367.625 344.048C369.217 344.124 370.812 344.425 372.192 345.259C374.106 346.415 375.261 348.129 375.735 350.284C376.376 353.201 376.014 356.745 376.016 359.738L376.024 376.409L376.021 402.567C376.019 407.039 376.265 411.671 375.958 416.125C375.855 417.618 375.464 419.148 374.622 420.398C373.173 422.548 371.318 423.483 368.872 423.959L355.642 424.102L334.71 424.105L269.755 424.108L186.645 424.107L160.431 424.111L145.47 424.096C143.356 424.022 141.39 423.863 139.55 422.71C137.816 421.625 136.572 419.901 136.209 417.872C135.72 415.133 136.008 411.951 136.005 409.164L135.996 393.203L135.999 365.821C136.001 361.218 135.756 356.462 136.067 351.875C136.179 350.219 136.539 348.653 137.526 347.291C139.142 345.06 140.846 344.513 143.412 344.077ZM152.078 360L152.016 407.917L359.964 407.962L360.054 360.183L305.976 360.103L210.895 360.101L169.889 360.105L159.194 360.113C156.829 360.14 154.426 360.338 152.078 360Z"/>
</svg>
