<?xml version="1.0" encoding="utf-8" ?>
<svg xmlns="http://www.w3.org/2000/svg" xmlns:xlink="http://www.w3.org/1999/xlink" width="512" height="512">
	<path fill="#1778F3" d="M0 242.345L-0 -0L242.341 0L269.406 0L512 0L512 241.339L512 270.166L512 512L271.159 512L240.09 512L-0 512L0 269.401L0 242.345ZM0 269.401L-0 512L240.09 512C237.125 511.021 233.749 511.252 230.685 510.931L216.227 509.084C212.842 508.637 209.471 507.77 206.125 507.147C180.692 502.407 156.345 493.186 133.5 481.053C124.065 476.042 115.113 470.087 106.445 463.875C104.357 462.378 102.151 460.973 100.133 459.375C99.4779 458.856 98.9381 458.206 98.2741 457.695C97.2656 456.919 96.0784 456.3 95.125 455.475L84.625 446.47L75.2643 437.415L61.6187 422.977L58.2959 418.748C34.3841 389.993 17.0154 355.778 7.812 319.5C5.67398 311.072 4.07062 302.579 2.74245 294C2.52226 292.578 2.12669 291.181 1.96224 289.75L1.0888 282.117L0.639376 274.064C0.545075 272.581 0.542582 271.06 0.0821376 269.635L0 269.401ZM512 270.166L511.917 270.472C510.914 274.465 511.363 278.958 510.864 283.068C509.471 294.543 507.672 306.057 504.859 317.288C496.716 349.806 482.398 380.853 462.492 407.875L457.914 413.671C457.204 414.595 456.62 415.615 455.88 416.516C455.257 417.275 454.455 417.86 453.853 418.625C452.991 419.722 452.292 420.953 451.388 422.018C450.524 423.037 449.426 423.849 448.585 424.875C447.762 425.877 447.079 426.983 446.204 427.947L439.178 435.108C424.896 449.621 409.261 462.402 392 473.233C372.194 485.662 350.419 495.368 328 501.985L314.875 505.28C310.051 506.484 305.145 507.563 300.231 508.325C298.869 508.537 297.39 508.943 296.029 509.022L281.125 510.979C277.971 511.273 274.166 510.972 271.159 512L512 512L512 270.166ZM269.406 0L269.658 0.0807875C273.409 1.19353 277.994 0.761961 281.875 1.09547L294.25 2.7552C297.344 3.19449 300.528 3.51155 303.587 4.16077C314.01 6.37277 324.391 8.7598 334.54 12.0423L347.551 16.5952C349.257 17.2127 350.869 18.1352 352.624 18.6147C354.049 19.0038 355.366 19.9387 356.75 20.4703C365.011 23.6425 372.938 27.8657 380.743 32.0487C382.769 33.1343 384.455 34.5434 386.602 35.4706C388.045 36.0936 389.08 37.125 390.375 37.9409L405.077 47.6762L415.99 55.7562C417.023 56.5505 417.873 57.5546 418.882 58.375C419.932 59.2292 421.107 59.9165 422.125 60.8166C423.125 61.701 423.977 62.7373 424.969 63.625C426.109 64.6457 427.417 65.4741 428.562 66.5182L444.853 82.817L453.125 92.477C453.908 93.3968 454.82 94.1846 455.585 95.1311C456.377 96.1123 456.965 97.2363 457.738 98.2336C459.285 100.228 460.996 102.086 462.484 104.156C468.646 112.724 474.425 121.534 479.732 130.653C480.379 131.765 480.757 133.021 481.39 134.14C485.952 142.203 489.987 150.78 493.474 159.375C497.401 169.052 500.672 179.062 503.375 189.144L508.357 211.693C508.533 212.689 508.857 213.645 508.997 214.651L510.989 230C511.414 233.685 510.903 237.773 512 241.339L512 0L269.406 0ZM0 242.345C0.561186 240.826 0.464269 239.222 0.563326 237.625L1.09077 229.496L2.8547 216.52C2.95856 215.809 2.90029 215.082 3.0183 214.375C7.40958 188.05 15.9928 161.864 28.2993 138.161L38.8131 119.956C41.3762 115.636 44.3741 111.472 47.2705 107.375C54.9246 96.547 63.3826 86.5254 72.7085 77.0956L84.2876 65.7239C99.3672 52.1001 116.144 40.4309 133.934 30.6729C139.904 27.3979 145.97 24.1615 152.25 21.5128C165.791 15.8018 179.608 11.0351 193.877 7.41984C201.184 5.56837 208.563 4.19626 216.006 3.02887L222.327 1.9901L230.516 1.06305C234.218 0.803723 238.508 1.03858 242.07 0.0787081L242.341 0L-0 -0L0 242.345Z"/>
	<path fill="#FEFEFE" d="M216.227 509.084C215.9 506.675 215.987 504.226 215.983 501.799L215.981 490.603L215.981 454.047L215.994 330.015L150.969 330.014L150.976 255.998L215.986 255.967L215.976 215.394C215.975 207.567 215.64 199.561 216.09 191.75C217.462 167.91 224.587 143.572 241.847 126.28C261.124 106.966 286.836 99.9586 313.521 99.9722L370.046 104.855L370.027 168.005L348.086 168.009C333.435 168.022 317.739 167.74 306.566 178.852C301.915 183.477 299.028 189.416 297.505 195.75C295.295 204.944 296.022 215.079 296.027 224.486L296.018 255.999L367.121 255.985L355.888 330.02L295.999 330.021L296.029 509.022L281.125 510.979C277.971 511.273 274.166 510.972 271.159 512L240.09 512C237.125 511.021 233.749 511.252 230.685 510.931L216.227 509.084Z"/>
</svg>
