<?xml version="1.0" encoding="utf-8" ?>
<svg xmlns="http://www.w3.org/2000/svg" xmlns:xlink="http://www.w3.org/1999/xlink" width="512" height="512">
	<defs>
		<linearGradient id="gradient_0" gradientUnits="userSpaceOnUse" x1="313.86188" y1="313.98822" x2="436.84879" y2="436.90204">
			<stop offset="0" stop-color="#D01C92"/>
			<stop offset="1" stop-color="#6D1CD0"/>
		</linearGradient>
	</defs>
	<path fill="url(#gradient_0)" d="M0 240.554L-0 -0L240.076 0L271.409 0L512 0L512 241.836L512 270.167L512 512L272.41 512L239.836 512L-0 512L0 270.915L0 240.554ZM0 240.554L0 270.915L-0 512L239.836 512C236.654 511.041 232.927 511.189 229.625 510.859L215.379 508.927C196.23 505.751 176.867 500.835 159.021 493.125C154.495 491.17 149.923 489.476 145.498 487.253L119.37 472.807C115.076 470.483 111.163 467.5 107.217 464.649C106.596 464.201 105.889 463.89 105.25 463.468C103.16 462.091 101.18 460.268 99.2242 458.707L91.5052 452.72C89.9384 451.458 88.6249 449.976 86.9878 448.749C88.9341 448.282 90.6623 447.025 92.375 446.037L98.144 442.811L159.761 404.022L173.765 394.146C175.158 393.113 176.697 392.163 178.024 391.057C178.568 390.603 178.919 390.516 179.603 390.433C180.11 390.371 180.728 389.688 181.138 389.356C167.547 386.212 155.774 380.764 145.351 371.285C133.911 360.881 125.938 346.845 122.803 331.706C121.824 326.979 121.467 322.392 121.238 317.58L121.248 229.866L121.244 207.086C121.242 197.349 120.993 187.805 123.256 178.25C126.343 165.21 133.039 153.076 142.446 143.537C151.836 134.015 163.747 126.945 176.743 123.653C187.298 120.978 197.578 121.261 208.358 121.258L233.973 121.255L317.363 121.229L330.422 122.47L330.447 122.091L329.75 122C329.094 121.879 328.477 121.761 327.812 121.688L328.058 121.527L328.124 120.759C328.458 120.343 328.421 120.172 329.012 120.143C329.53 120.117 329.682 120.152 330.195 119.922C330.359 118.506 331.684 117.791 332.379 116.625C332.661 116.154 332.812 115.834 333.256 115.498L333.612 115.238C333.804 114.581 334.1 114.296 334.59 113.855C334.977 113.506 335.351 113.166 335.673 112.752C335.922 112.433 336.077 112.164 336.37 111.868L336.675 111.569L337.105 111.091C337.442 110.829 337.664 110.824 337.909 110.442L338.069 110.18C338.947 109.209 339.613 108.084 340.682 107.234C341.346 106.707 341.778 105.946 342.507 105.543C343.068 105.233 343.08 105.057 343.398 104.517C344.324 104.073 344.556 103.414 345.359 102.922C345.78 102.663 345.689 102.802 345.925 102.433C346.123 102.125 346.284 102.046 346.514 101.783C346.845 101.403 346.968 101.139 347.392 100.815C347.649 100.618 348.042 100.399 348.244 100.133C348.753 99.4646 349.476 99.1287 349.872 98.5183C350.171 98.057 349.934 98.2956 350.293 97.975L350.514 97.7829C350.767 97.4851 350.846 97.2513 351.198 97.0213C351.757 96.6558 352.115 96.4331 352.499 95.8677C352.692 95.5826 352.814 95.368 353.073 95.1346C353.671 94.5963 354.099 93.9107 354.773 93.4549C355.376 93.0466 355.468 92.6388 356.234 92.2134C356.742 91.3446 357.608 90.5544 358.34 89.8547C358.979 89.2444 359.541 88.4565 360.269 87.9711C360.669 87.7045 361.166 87.3919 361.448 86.9869C361.803 86.4765 361.787 86.2685 362.347 85.9251C362.767 85.6679 362.682 85.8088 362.902 85.4659C363.604 84.3716 364.587 83.7758 365.425 82.819L365.855 82.3404C366.142 82.0768 366.438 81.8856 366.684 81.5731C367.112 81.0289 367.476 80.6665 368.039 80.2561L368.734 79.7135L369.324 79.0126C369.708 78.65 370.016 78.529 370.322 78.0685C370.728 77.4591 371.225 76.9518 371.652 76.3597L371.899 76.0152C372.885 75.7926 374.008 74.7243 374.549 73.8745C374.778 73.5157 374.78 73.3795 375.167 73.1377C375.618 72.8558 375.395 73.065 375.762 72.6271C376.145 72.1697 375.917 72.3852 376.376 72.0018C376.826 71.6264 377.118 71.1679 377.54 70.787L378.198 70.2369C378.553 69.8057 378.63 69.4508 379.104 69.0971C379.625 68.7089 380.558 67.8204 380.95 67.2893C382.124 65.6951 383.836 64.5401 385.144 63.0842C385.636 62.5368 386.13 61.9201 386.688 61.4375C387.038 61.1339 387.409 61.0983 387.675 60.6829C387.907 60.322 387.708 60.5241 388.012 60.2526L389.675 58.5689C390.306 57.8939 391.167 57.4797 391.764 56.7881C392.476 55.9621 393.45 55.4681 394.08 54.6425L394.313 54.313C394.86 53.7844 395.19 53.7542 395.549 53.0039C396.171 51.7021 397.091 51.1023 398.002 50.047C398.527 49.4399 398.447 49.3778 398.403 48.5946C399.04 48.0725 399.371 47.3442 400.044 46.9018L401 47.48L401.765 47.0873L401.815 46.2655C401.383 45.8883 401.026 45.6602 400.874 45.0849C401.191 45.2487 401.399 45.3835 401.66 45.635C402.034 45.9954 402.455 45.883 402.964 45.9021C399.967 43.3204 396.126 41.1159 392.716 39.1059L392.655 39.0054C391.989 38.4029 390.888 37.8703 390.115 37.3605C387.359 35.5452 384.42 33.9551 381.552 32.3236C354.008 16.6559 323.313 6.77879 292.005 2.32455L280 0.974701C277.735 0.757814 275.581 0.413894 273.291 0.50174L271.409 0L240.076 0L-0 -0L0 240.554ZM512 270.167L511.919 270.51C510.987 274.587 511.328 279.14 510.862 283.303C509.689 293.799 508.018 304.514 505.51 314.785C502.436 327.373 498.745 340.016 493.778 352C488.438 364.884 482.274 377.275 475.125 389.252C468.643 400.11 461.038 410.395 453.104 420.216C452.377 421.116 451.429 421.815 450.68 422.696C449.854 423.669 449.221 424.797 448.388 425.769C446.515 427.956 444.291 429.777 442.375 431.881C440.373 434.081 438.647 436.372 436.5 438.468C434.969 439.962 433.19 441.173 431.647 442.647L420.283 453.054C415.126 457.438 409.513 461.328 404.037 465.298L397.151 470.147C384.4 478.301 371.331 485.332 357.5 491.499L347.25 495.515C344.365 496.814 341.239 497.728 338.25 498.76C322.965 504.037 306.967 507.584 290.977 509.862L281.94 510.975C278.923 511.229 275.286 511.04 272.41 512L512 512L512 270.167ZM271.409 0L273.291 0.50174C275.581 0.413894 277.735 0.757814 280 0.974701L292.005 2.32455C323.313 6.77879 354.008 16.6559 381.552 32.3236C384.42 33.9551 387.359 35.5452 390.115 37.3605C390.888 37.8703 391.989 38.4029 392.655 39.0054L392.716 39.1059C396.126 41.1159 399.967 43.3204 402.964 45.9021C407.536 48.6669 411.705 52.2612 415.873 55.5869C417.262 56.6953 418.796 57.6018 420.151 58.754C421.045 59.5145 421.738 60.4907 422.625 61.265C423.892 62.3711 425.329 63.2748 426.605 64.3746C427.985 65.5635 429.07 66.9628 430.375 68.1739C431.276 69.0095 432.344 69.6788 433.265 70.4995C435.076 72.1136 436.778 73.9455 438.444 75.7089L442.342 80.1501C443.244 81.0856 444.323 81.7839 445.177 82.7639L448.88 87.0524C449.859 88.2382 450.764 89.5355 451.95 90.5181C454.036 92.2474 455.216 95.0461 457.253 96.9588C458.01 97.6704 458.499 98.7054 459.129 99.538C461.081 102.116 463.302 104.505 464.778 107.409C465.044 107.933 465.325 108.198 465.753 108.6C467.32 110.071 468.338 112.088 469.498 113.875C470.654 115.657 471.922 117.233 472.757 119.219C473.204 120.283 474.01 120.737 474.647 121.625C475.311 122.55 475.64 123.658 476.196 124.641C476.696 125.525 477.439 126.258 477.96 127.125C478.503 128.031 478.689 129.091 479.2 130.015C479.666 130.859 480.353 131.59 480.838 132.433C482.145 134.705 483.252 137.128 484.413 139.477L493.538 159.377C494.42 160.939 494.559 162.666 495.259 164.25C500.437 175.973 503.491 188.738 506.345 201.185L508.331 211.375C508.516 212.338 508.867 213.276 508.997 214.25C509.138 215.302 508.996 216.387 509.165 217.433C509.359 218.638 509.835 219.792 510.013 221C510.162 222.017 510.036 223.043 510.144 224.057C510.401 226.474 510.904 228.831 511.059 231.273C511.267 234.524 511.036 238.732 512 241.836L512 0L271.409 0Z"/>
	<defs>
		<linearGradient id="gradient_1" gradientUnits="userSpaceOnUse" x1="140.45816" y1="396.05676" x2="188.91685" y2="444.06937">
			<stop offset="0" stop-color="#F51B7A"/>
			<stop offset="1" stop-color="#CE1C93"/>
		</linearGradient>
	</defs>
	<path fill="url(#gradient_1)" d="M181.138 389.356C184.126 389.841 187.092 390.346 190.116 390.553C196.304 390.976 202.612 390.742 208.816 390.744L234.579 390.75C238.591 390.751 242.754 390.526 246.75 390.788L246.524 390.952C245.118 391.689 242.512 390.522 241.25 391.377C240.997 391.377 240.329 391.295 240.125 391.377C239.417 391.662 239.63 392.163 238.812 391.812C238.469 392.028 238.419 392.127 238 392.125L237.812 392.438L237.562 392.312L237.125 392.5L236.812 392.312C236.021 393.001 235.279 393.218 234.627 394C234.627 394.809 234.821 394.82 235.373 395.375L235 395.623L233.75 396.514C232.63 397.285 230.335 399.573 229.749 400.749C229.439 401.37 228.335 402.189 227.749 402.499C227.254 402.76 226.987 403.304 226.749 403.749C226.356 404.48 224.962 405.62 224.249 405.999C223.412 406.443 222.929 407.511 221.999 407.999C221.222 408.406 211.181 418.698 210.999 419.249L209.961 420.092C207.594 421.987 205.429 424.57 203.277 426.728C202.487 427.52 201.675 428.504 200.75 429.125L200.749 429.499L198.75 431.125L198.749 431.499C198.278 432.006 197.944 432.432 197.25 432.625L197.249 432.999C196.038 434.224 194.704 435.912 193.249 436.749C192.721 437.052 192.065 437.9 191.61 438.354L188.055 441.908C187.567 442.395 186.967 442.838 186.749 443.499L186.539 443.654C185.442 444.476 184.62 445.241 183.873 446.375C183.511 446.924 183.023 447.196 182.499 447.499L181.75 448.125L181.749 448.499L181.539 448.654C180.372 449.528 179.418 450.418 178.623 451.625C178.273 452.156 177.778 452.474 177.249 452.749C176.836 452.963 176.306 453.658 175.967 453.996C174.892 455.07 173.472 456.197 172.749 457.499C172.444 458.046 171.597 458.718 171 458.875L170.999 459.249L169.961 460.092C166.681 462.718 163.64 466.358 160.651 469.353C159.661 470.346 158.65 471.603 157.5 472.375L157.499 472.749C156.539 473.697 154.14 475.566 153.749 476.749L153 477.375L152.999 477.749C152.178 478.53 151.447 479.144 150.873 480.125C150.633 480.534 150.224 480.911 149.75 481.037C149.203 481.182 148.769 481.188 148.25 481.443L147.625 481.385L147.359 481.609C146.908 481.966 147.113 481.815 146.61 482.065C146.205 482.266 146.109 482.376 145.877 482.75C146.041 483.379 145.927 483.089 146.203 483.625L146.051 484.051C145.542 484.136 145.498 484.144 145.128 484.5L145.5 484.873L145.938 484.562L145.889 485.125L146.373 485.625L146.062 486.126L146.188 486.452L145.498 487.253L119.37 472.807C115.076 470.483 111.163 467.5 107.217 464.649C106.596 464.201 105.889 463.89 105.25 463.468C103.16 462.091 101.18 460.268 99.2242 458.707L91.5052 452.72C89.9384 451.458 88.6249 449.976 86.9878 448.749C88.9341 448.282 90.6623 447.025 92.375 446.037L98.144 442.811L159.761 404.022L173.765 394.146C175.158 393.113 176.697 392.163 178.024 391.057C178.568 390.603 178.919 390.516 179.603 390.433C180.11 390.371 180.728 389.688 181.138 389.356Z"/>
	<defs>
		<linearGradient id="gradient_2" gradientUnits="userSpaceOnUse" x1="351.43405" y1="95.91011" x2="445.91736" y2="187.40715">
			<stop offset="0" stop-color="#FF5077"/>
			<stop offset="1" stop-color="#D41090"/>
		</linearGradient>
	</defs>
	<path fill="url(#gradient_2)" d="M330.422 122.47L330.447 122.091L329.75 122C329.094 121.879 328.477 121.761 327.812 121.688L328.058 121.527L328.124 120.759C328.458 120.343 328.421 120.172 329.012 120.143C329.53 120.117 329.682 120.152 330.195 119.922C330.359 118.506 331.684 117.791 332.379 116.625C332.661 116.154 332.812 115.834 333.256 115.498L333.612 115.238C333.804 114.581 334.1 114.296 334.59 113.855C334.977 113.506 335.351 113.166 335.673 112.752C335.922 112.433 336.077 112.164 336.37 111.868L336.675 111.569L337.105 111.091C337.442 110.829 337.664 110.824 337.909 110.442L338.069 110.18C338.947 109.209 339.613 108.084 340.682 107.234C341.346 106.707 341.778 105.946 342.507 105.543C343.068 105.233 343.08 105.057 343.398 104.517C344.324 104.073 344.556 103.414 345.359 102.922C345.78 102.663 345.689 102.802 345.925 102.433C346.123 102.125 346.284 102.046 346.514 101.783C346.845 101.403 346.968 101.139 347.392 100.815C347.649 100.618 348.042 100.399 348.244 100.133C348.753 99.4646 349.476 99.1287 349.872 98.5183C350.171 98.057 349.934 98.2956 350.293 97.975L350.514 97.7829C350.767 97.4851 350.846 97.2513 351.198 97.0213C351.757 96.6558 352.115 96.4331 352.499 95.8677C352.692 95.5826 352.814 95.368 353.073 95.1346C353.671 94.5963 354.099 93.9107 354.773 93.4549C355.376 93.0466 355.468 92.6388 356.234 92.2134C356.742 91.3446 357.608 90.5544 358.34 89.8547C358.979 89.2444 359.541 88.4565 360.269 87.9711C360.669 87.7045 361.166 87.3919 361.448 86.9869C361.803 86.4765 361.787 86.2685 362.347 85.9251C362.767 85.6679 362.682 85.8088 362.902 85.4659C363.604 84.3716 364.587 83.7758 365.425 82.819L365.855 82.3404C366.142 82.0768 366.438 81.8856 366.684 81.5731C367.112 81.0289 367.476 80.6665 368.039 80.2561L368.734 79.7135L369.324 79.0126C369.708 78.65 370.016 78.529 370.322 78.0685C370.728 77.4591 371.225 76.9518 371.652 76.3597L371.899 76.0152C372.885 75.7926 374.008 74.7243 374.549 73.8745C374.778 73.5157 374.78 73.3795 375.167 73.1377C375.618 72.8558 375.395 73.065 375.762 72.6271C376.145 72.1697 375.917 72.3852 376.376 72.0018C376.826 71.6264 377.118 71.1679 377.54 70.787L378.198 70.2369C378.553 69.8057 378.63 69.4508 379.104 69.0971C379.625 68.7089 380.558 67.8204 380.95 67.2893C382.124 65.6951 383.836 64.5401 385.144 63.0842C385.636 62.5368 386.13 61.9201 386.688 61.4375C387.038 61.1339 387.409 61.0983 387.675 60.6829C387.907 60.322 387.708 60.5241 388.012 60.2526L389.675 58.5689C390.306 57.8939 391.167 57.4797 391.764 56.7881C392.476 55.9621 393.45 55.4681 394.08 54.6425L394.313 54.313C394.86 53.7844 395.19 53.7542 395.549 53.0039C396.171 51.7021 397.091 51.1023 398.002 50.047C398.527 49.4399 398.447 49.3778 398.403 48.5946C399.04 48.0725 399.371 47.3442 400.044 46.9018L401 47.48L401.765 47.0873L401.815 46.2655C401.383 45.8883 401.026 45.6602 400.874 45.0849C401.191 45.2487 401.399 45.3835 401.66 45.635C402.034 45.9954 402.455 45.883 402.964 45.9021C407.536 48.6669 411.705 52.2612 415.873 55.5869C417.262 56.6953 418.796 57.6018 420.151 58.754C421.045 59.5145 421.738 60.4907 422.625 61.265C423.892 62.3711 425.329 63.2748 426.605 64.3746C427.985 65.5635 429.07 66.9628 430.375 68.1739C431.276 69.0095 432.344 69.6788 433.265 70.4995C435.076 72.1136 436.778 73.9455 438.444 75.7089L442.342 80.1501C443.244 81.0856 444.323 81.7839 445.177 82.7639L448.88 87.0524C449.859 88.2382 450.764 89.5355 451.95 90.5181C454.036 92.2474 455.216 95.0461 457.253 96.9588C458.01 97.6704 458.499 98.7054 459.129 99.538C461.081 102.116 463.302 104.505 464.778 107.409C465.044 107.933 465.325 108.198 465.753 108.6C467.32 110.071 468.338 112.088 469.498 113.875C470.654 115.657 471.922 117.233 472.757 119.219C473.204 120.283 474.01 120.737 474.647 121.625C475.311 122.55 475.64 123.658 476.196 124.641C476.696 125.525 477.439 126.258 477.96 127.125C478.503 128.031 478.689 129.091 479.2 130.015C479.666 130.859 480.353 131.59 480.838 132.433C482.145 134.705 483.252 137.128 484.413 139.477L484.42 139.932C484.43 140.403 484.509 140.793 484.627 141.25C484.793 141.891 484.977 141.938 485.5 142.375L485.127 142.625L485.5 142.873L485.751 143.749L486.25 144.25L486.127 144.625L486.5 144.873C486.658 145.339 486.613 145.309 486.501 145.751C486.118 145.751 486.329 145.778 485.875 145.627L485.562 145.938L485.312 145.751L484.999 145.751L484.656 145.482C484.301 145.215 484.148 145.127 483.749 145.001L483.375 144.877L483.062 145.188L482.875 144.877L482.689 145.25C482.545 145.465 482.357 145.51 482.127 145.625C482.126 146.313 482.265 146.917 481.877 147.5C481.875 148.077 481.897 147.978 481.627 148.5L481.529 148.798C481.377 149.174 481.215 149.286 480.922 149.54C480.002 150.342 479.33 151.456 478.251 152.001C477.893 152.183 477.415 152.821 477.124 153.116C476.151 154.099 475.185 155.341 474.001 156.001C473.517 156.272 472.977 157.009 472.562 157.427C471.215 158.783 469.608 160.843 468.001 161.751C467.439 162.069 467.041 162.729 466.751 163.251C466.299 164.066 464.791 165.305 464.001 165.751C463.439 166.069 463.041 166.729 462.751 167.251C462.322 168.023 460.771 169.36 460.001 169.751C459.616 169.947 459.113 170.606 458.798 170.921C457.906 171.81 456.063 173.225 455.625 174.377L455.251 174.501C453.81 175.306 452.729 178.012 451.251 178.501L451.096 178.711C450.482 179.531 449.913 180.297 449.001 180.751C448.38 181.061 447.561 182.165 447.251 182.751C446.985 183.255 446.444 183.501 446.001 183.751C445.423 184.078 445.063 184.732 444.751 185.251L444.079 185.955L443.891 186.146C443.558 186.481 443.39 186.539 443.001 186.751C442.193 187.193 437.752 191.754 437.501 192.501L437.253 192.625C436.214 193.249 433.112 196.178 432.751 197.251L432.547 197.4C430.221 199.146 428.192 201.546 426.125 203.61L414.001 215.723L410.321 219.399C409.774 219.945 408.999 220.514 408.751 221.251L408.477 221.393C407.783 221.81 407.304 222.658 406.751 223.251L403.776 226.481C403.044 227.219 402.225 227.842 401.751 228.751C401.372 229.48 400.166 230.339 399.501 230.751C398.802 231.184 398.564 231.871 397.751 232.251C397.255 232.483 396.922 233.184 396.5 233.377C395.615 233.783 395.517 232.987 394.562 233.938L394.375 233.627C394.052 234.113 393.879 234.41 393.875 235L393.562 235.001L393.127 235.5L393.188 235.938L392.875 235.627L392.5 236L392.125 235.877C391.697 236.522 392.129 236.994 391.627 237.5L391.562 238.688L391.5 232.875C391.503 232.334 391.528 231.928 391.5 231.375L391.553 230.5C391.549 229.862 391.373 229.227 391.367 228.578L391.371 221.71C391.372 221.216 391.514 220.065 391.373 219.625C391.357 219.576 391.026 219.308 391 219.25C390.808 218.814 391.088 218.25 390.788 217.791L390.664 192.43C390.019 179.646 386.46 167.448 379.733 156.516C371.504 143.144 359.031 132.525 344.458 126.657C339.864 124.807 335.223 123.616 330.422 122.47Z"/>
	<path fill="#FEFEFE" d="M317.363 121.229L330.422 122.47C335.223 123.616 339.864 124.807 344.458 126.657C359.031 132.525 371.504 143.144 379.733 156.516C386.46 167.448 390.019 179.646 390.664 192.43L390.788 217.791L390.745 286.183L390.742 306.938C390.739 316.793 390.724 326.116 388.213 335.737C384.865 348.568 377.803 360.555 368.287 369.788C355.717 381.985 339.399 389.154 321.989 390.531C315.04 391.081 307.859 390.748 300.88 390.746L264.834 390.75C258.875 390.75 252.686 390.396 246.75 390.788C242.754 390.526 238.591 390.751 234.579 390.75L208.816 390.744C202.612 390.742 196.304 390.976 190.116 390.553C187.092 390.346 184.126 389.841 181.138 389.356C167.547 386.212 155.774 380.764 145.351 371.285C133.911 360.881 125.938 346.845 122.803 331.706C121.824 326.979 121.467 322.392 121.238 317.58L121.248 229.866L121.244 207.086C121.242 197.349 120.993 187.805 123.256 178.25C126.343 165.21 133.039 153.076 142.446 143.537C151.836 134.015 163.747 126.945 176.743 123.653C187.298 120.978 197.578 121.261 208.358 121.258L233.973 121.255L317.363 121.229Z"/>
	<defs>
		<linearGradient id="gradient_3" gradientUnits="userSpaceOnUse" x1="162.59489" y1="163.4008" x2="188.95644" y2="189.57275">
			<stop offset="0" stop-color="#FF9D54"/>
			<stop offset="1" stop-color="#FF8066"/>
		</linearGradient>
	</defs>
	<path fill="url(#gradient_3)" d="M144.958 306.598L144.96 204.011C145.679 187.515 152.552 172.081 164.773 160.892C173.167 153.206 183.991 147.78 195.24 145.875C201.112 144.881 206.998 144.912 212.932 144.909L230.865 144.907L253.984 144.915L266.911 144.993L266.616 145.246C265.224 145.24 263.611 145.093 262.25 145.315C260.97 145.524 259.317 145.345 258 145.311C255.934 145.259 253.805 145.53 251.75 145.311C250.865 145.217 249.896 145.332 249 145.311C246.355 145.251 243.633 145.1 241 145.311C240.57 145.346 240.123 145.319 239.695 145.277C237.881 145.099 235.96 145.357 234.125 145.25C233.012 145.185 230.892 145.028 229.875 145.377L230.123 145.625C229.497 146.125 229.427 146.128 228.624 146.188L229.061 146.5L229 147.125L228.623 147.25C228.624 147.757 228.5 147.874 228.873 148.25L228.812 148.688L229.249 148.751L229.373 149.125C228.911 149.543 228.582 149.876 228 150.125L227.999 150.438L227.811 150.75L227.625 151.123L227.25 151.125L226.875 151.873L226.5 151.875C225.859 152.259 226.079 152.419 225.749 152.749C225.627 152.87 225.371 152.754 225.25 152.875C225.052 153.073 225.07 153.427 224.873 153.625C224.333 154.164 224.063 153.799 223.749 154.749C223.29 155.024 223.174 154.969 222.999 155.499L222.623 155.75C222.377 155.947 222.236 156.312 221.999 156.499C221.939 156.546 221.544 156.581 221.5 156.625C221.267 156.858 221.196 157.311 220.927 157.593L217.393 161.128L202.998 175.517L155.875 222.623L155.5 222.625L155.499 222.999C155.163 223.335 155.262 223.372 154.75 223.375L154.749 223.749L154 224.375L153.999 224.749L153.25 225.125L153.249 225.499L152.75 225.625L152.375 226.372L152 226.375L151.625 227.123L151.25 227.125L150.875 227.873L150.5 227.875L150.311 228.25L150.062 228.499L149.812 228.312C149.412 228.713 149.5 228.478 149.499 228.999L149 229.125L148.625 229.873L148.25 229.875L147.875 230.623L147.377 230.375L147.375 230L146.812 230.562L147.123 230.875C146.727 231.251 146.51 231.467 146.001 231.688L145.877 231.25L145.811 240.75L145.842 241.008C145.994 242.559 145.706 244.18 145.811 245.75C145.903 247.118 145.746 248.508 145.75 249.875L145.742 265.136C145.742 267.903 145.602 270.748 145.811 273.5L145.75 278.625L145.593 278.625L145.464 275.375L145.295 275.291C144.869 277.531 145.11 280.129 145.107 282.414L145.094 298.653C145.091 301.212 145.345 304.075 144.958 306.598Z"/>
	<defs>
		<linearGradient id="gradient_4" gradientUnits="userSpaceOnUse" x1="187.28059" y1="187.12738" x2="339.00171" y2="339.18802">
			<stop offset="0" stop-color="#FF7367"/>
			<stop offset="1" stop-color="#CB079D"/>
		</linearGradient>
	</defs>
	<path fill="url(#gradient_4)" d="M266.911 144.993L292.744 144.919C299.058 144.92 305.545 144.613 311.829 145.164C325.221 146.337 338.155 152.325 347.914 161.53C357.168 170.257 363.782 182.105 366.079 194.655C366.829 198.75 367.042 202.939 367.149 207.094L367.156 265.683L367.177 293.576C367.179 300.879 367.377 308.215 366.384 315.47C364.66 328.059 358.129 340.261 349.197 349.209C340.065 358.357 327.673 364.791 314.812 366.465C309.039 367.217 303.196 367.106 297.387 367.099L287.475 367.021C284.908 367.354 281.974 367.079 279.374 367.08L261.523 367.087L207.125 367.093C202.572 367.006 198.164 366.755 193.686 365.857C181.566 363.426 170.275 357.056 161.758 348.128C151.35 337.217 144.647 321.809 144.958 306.598C145.345 304.075 145.091 301.212 145.094 298.653L145.107 282.414C145.11 280.129 144.869 277.531 145.295 275.291L145.464 275.375L145.593 278.625L145.75 278.625L145.811 273.5C145.602 270.748 145.742 267.903 145.742 265.136L145.75 249.875C145.746 248.508 145.903 247.118 145.811 245.75C145.706 244.18 145.994 242.559 145.842 241.008L145.811 240.75L145.877 231.25L146.001 231.688C146.51 231.467 146.727 231.251 147.123 230.875L146.812 230.562L147.375 230L147.377 230.375L147.875 230.623L148.25 229.875L148.625 229.873L149 229.125L149.499 228.999C149.5 228.478 149.412 228.713 149.812 228.312L150.062 228.499L150.311 228.25L150.5 227.875L150.875 227.873L151.25 227.125L151.625 227.123L152 226.375L152.375 226.372L152.75 225.625L153.249 225.499L153.25 225.125L153.999 224.749L154 224.375L154.749 223.749L154.75 223.375C155.262 223.372 155.163 223.335 155.499 222.999L155.5 222.625L155.875 222.623L202.998 175.517L217.393 161.128L220.927 157.593C221.196 157.311 221.267 156.858 221.5 156.625C221.544 156.581 221.939 156.546 221.999 156.499C222.236 156.312 222.377 155.947 222.623 155.75L222.999 155.499C223.174 154.969 223.29 155.024 223.749 154.749C224.063 153.799 224.333 154.164 224.873 153.625C225.07 153.427 225.052 153.073 225.25 152.875C225.371 152.754 225.627 152.87 225.749 152.749C226.079 152.419 225.859 152.259 226.5 151.875L226.875 151.873L227.25 151.125L227.625 151.123L227.811 150.75L227.999 150.438L228 150.125C228.582 149.876 228.911 149.543 229.373 149.125L229.249 148.751L228.812 148.688L228.873 148.25C228.5 147.874 228.624 147.757 228.623 147.25L229 147.125L229.061 146.5L228.624 146.188C229.427 146.128 229.497 146.125 230.123 145.625L229.875 145.377C230.892 145.028 233.012 145.185 234.125 145.25C235.96 145.357 237.881 145.099 239.695 145.277C240.123 145.319 240.57 145.346 241 145.311C243.633 145.1 246.355 145.251 249 145.311C249.896 145.332 250.865 145.217 251.75 145.311C253.805 145.53 255.934 145.259 258 145.311C259.317 145.345 260.97 145.524 262.25 145.315C263.611 145.093 265.224 145.24 266.616 145.246L266.911 144.993Z"/>
	<path fill="#FEFEFE" d="M326.801 166.814C330.304 166.392 334.01 167.188 337.033 169.016C340.564 171.152 343.529 174.874 344.423 178.955C345.431 183.558 345.002 188.044 342.455 192.09C339.773 196.351 335.806 198.485 331.009 199.598C326.799 199.847 323.254 199.377 319.652 196.954C315.949 194.464 313.447 190.441 312.645 186.077C311.858 181.803 313.017 177.249 315.48 173.709C318.217 169.773 322.177 167.679 326.801 166.814Z"/>
	<path fill="#BA1BA0" d="M287.475 367.021C288.518 366.688 289.674 366.938 290.75 366.661C291.988 366.343 293.393 366.491 294.672 366.494C296.427 366.498 298.256 366.369 300 366.439C300.82 366.472 301.709 366.305 302.499 366.434C303.615 366.616 304.753 366.368 305.875 366.377C307.882 366.394 309.9 366.595 311.875 366.25L311.5 366.123C310.934 365.838 310.894 365.874 310.25 365.873C309.919 365.653 309.723 365.525 309.312 365.624L309.062 365.749L308.625 365.623L308.375 365.873L308.127 365.25C307.969 364.813 308.091 364.948 307.806 364.663L307.627 364.5L308 364.125L308.375 364.127C308.632 363.406 309.039 362.853 309.501 362.251C310.11 362.05 310.505 361.541 310.9 361.048L311.127 360.75L311.501 360.251C311.796 359.631 312.197 359.412 312.751 359.001C313.443 358.999 313.938 358.021 314.462 357.553L319.501 352.751L320.001 352.251C320.788 351.592 321.522 351.053 322.188 350.255L322.5 349.875L322.75 349.875C323.146 349.614 323.056 349.717 323.304 349.431L330.438 342.188C331.767 341.402 333.777 339.516 334.722 338.254C335.871 336.72 337.701 335.604 338.752 334.033C339.103 333.509 339.563 333.077 340 332.625C340.963 332.629 341.858 330.605 342.598 330.113C343.663 329.405 345.17 327.643 345.926 326.566L346.188 326.188C346.834 325.91 347.075 325.421 347.5 324.875C348.034 324.698 347.974 324.587 348.25 324.125L348.562 324.126C348.818 323.656 349.05 323.308 349.5 323C350.071 322.609 350.154 322.286 350.614 321.808C351.892 320.476 353.5 318.519 355.035 317.563L355.25 317.439C355.446 316.957 355.847 316.756 356.25 316.439C356.714 315.298 358.468 313.679 359.312 312.751C359.682 312.345 360.022 312.151 360.294 311.649L360.501 311.251C361.183 311.025 361.748 310.27 362.251 309.751C362.653 309.69 362.802 309.606 363.156 309.37L363.5 309.127C363.832 309.346 364.003 309.499 364.242 309.825C364.442 310.101 364.614 310.327 364.843 310.575C365.243 311.007 365.123 311.062 365.123 311.625L365.625 311.127L365.999 311.501C366.072 312.086 366.018 311.838 366.127 312.25C366.519 311.855 366.433 311.537 366.5 311L366.062 310.688C366.228 310.348 366.37 310.058 366.445 309.684L366.5 309.375C366.647 308.822 366.913 307.811 366.75 307.25C366.627 306.826 366.175 306.544 366.377 306C366.404 305.929 366.733 305.688 366.75 305.625C366.908 305.041 366.747 303.83 366.746 303.192L366.741 296.211L366.931 278.745C366.961 274.416 366.813 269.999 367.156 265.683L367.177 293.576C367.179 300.879 367.377 308.215 366.384 315.47C364.66 328.059 358.129 340.261 349.197 349.209C340.065 358.357 327.673 364.791 314.812 366.465C309.039 367.217 303.196 367.106 297.387 367.099L287.475 367.021Z"/>
	<path fill="#FEFEFE" d="M250.722 186.603L250.82 186.588C267.85 185.218 285.023 190.563 298.369 201.199C313.214 213.031 322.189 230.402 324.177 249.188C326.089 267.257 319.99 285.855 308.629 299.886C296.728 314.584 279.474 323.174 260.81 325.112L259.658 325.239C255.982 325.616 252.291 325.401 248.626 325C235.728 323.593 223.249 318.489 213.173 310.279C198.895 298.644 189.32 281.213 187.63 262.808C185.933 244.332 191.364 225.706 203.254 211.386C215.174 197.029 232.194 188.333 250.722 186.603Z"/>
	<defs>
		<linearGradient id="gradient_5" gradientUnits="userSpaceOnUse" x1="223.59067" y1="223.87122" x2="286.91306" y2="288.11438">
			<stop offset="0" stop-color="#FF4D74"/>
			<stop offset="1" stop-color="#F0278F"/>
		</linearGradient>
	</defs>
	<path fill="url(#gradient_5)" d="M251.142 210.6L251.155 210.595C262.596 209.579 274.285 212.788 283.354 219.932C292.702 227.295 299.268 238.303 300.595 250.205C301.955 262.398 298.97 274.843 291.191 284.483C283.252 294.322 272.31 300.03 259.81 301.422C247.599 302.117 236.37 299.321 226.721 291.55C216.617 283.412 211.102 272.127 209.844 259.359C208.713 247.879 212.968 235.558 220.306 226.795C228.055 217.54 239.122 211.682 251.142 210.6Z"/>
	<defs>
		<linearGradient id="gradient_6" gradientUnits="userSpaceOnUse" x1="82.692078" y1="81.803558" x2="219.06746" y2="218.19275">
			<stop offset="0" stop-color="#FCE81A"/>
			<stop offset="1" stop-color="#FF6476"/>
		</linearGradient>
	</defs>
	<path fill="url(#gradient_6)" d="M0 240.554L-0 -0L240.076 0L271.409 0L273.291 0.50174C275.581 0.413894 277.735 0.757814 280 0.974701L292.005 2.32455C323.313 6.77879 354.008 16.6559 381.552 32.3236C384.42 33.9551 387.359 35.5452 390.115 37.3605C390.888 37.8703 391.989 38.4029 392.655 39.0054L392.716 39.1059C396.126 41.1159 399.967 43.3204 402.964 45.9021C402.455 45.883 402.034 45.9954 401.66 45.635C401.399 45.3835 401.191 45.2487 400.874 45.0849C401.026 45.6602 401.383 45.8883 401.815 46.2655L401.765 47.0873L401 47.48L400.044 46.9018C399.371 47.3442 399.04 48.0725 398.403 48.5946C398.447 49.3778 398.527 49.4399 398.002 50.047C397.091 51.1023 396.171 51.7021 395.549 53.0039C395.19 53.7542 394.86 53.7844 394.313 54.313L394.08 54.6425C393.45 55.4681 392.476 55.9621 391.764 56.7881C391.167 57.4797 390.306 57.8939 389.675 58.5689L388.012 60.2526C387.708 60.5241 387.907 60.322 387.675 60.6829C387.409 61.0983 387.038 61.1339 386.688 61.4375C386.13 61.9201 385.636 62.5368 385.144 63.0842C383.836 64.5401 382.124 65.6951 380.95 67.2893C380.558 67.8204 379.625 68.7089 379.104 69.0971C378.63 69.4508 378.553 69.8057 378.198 70.2369L377.54 70.787C377.118 71.1679 376.826 71.6264 376.376 72.0018C375.917 72.3852 376.145 72.1697 375.762 72.6271C375.395 73.065 375.618 72.8558 375.167 73.1377C374.78 73.3795 374.778 73.5157 374.549 73.8745C374.008 74.7243 372.885 75.7926 371.899 76.0152L371.652 76.3597C371.225 76.9518 370.728 77.4591 370.322 78.0685C370.016 78.529 369.708 78.65 369.324 79.0126L368.734 79.7135L368.039 80.2561C367.476 80.6665 367.112 81.0289 366.684 81.5731C366.438 81.8856 366.142 82.0768 365.855 82.3404L365.425 82.819C364.587 83.7758 363.604 84.3716 362.902 85.4659C362.682 85.8088 362.767 85.6679 362.347 85.9251C361.787 86.2685 361.803 86.4765 361.448 86.9869C361.166 87.3919 360.669 87.7045 360.269 87.9711C359.541 88.4565 358.979 89.2444 358.34 89.8547C357.608 90.5544 356.742 91.3446 356.234 92.2134C355.468 92.6388 355.376 93.0466 354.773 93.4549C354.099 93.9107 353.671 94.5963 353.073 95.1346C352.814 95.368 352.692 95.5826 352.499 95.8677C352.115 96.4331 351.757 96.6558 351.198 97.0213C350.846 97.2513 350.767 97.4851 350.514 97.7829L350.293 97.975C349.934 98.2956 350.171 98.057 349.872 98.5183C349.476 99.1287 348.753 99.4646 348.244 100.133C348.042 100.399 347.649 100.618 347.392 100.815C346.968 101.139 346.845 101.403 346.514 101.783C346.284 102.046 346.123 102.125 345.925 102.433C345.689 102.802 345.78 102.663 345.359 102.922C344.556 103.414 344.324 104.073 343.398 104.517C343.08 105.057 343.068 105.233 342.507 105.543C341.778 105.946 341.346 106.707 340.682 107.234C339.613 108.084 338.947 109.209 338.069 110.18L337.909 110.442C337.664 110.824 337.442 110.829 337.105 111.091L336.675 111.569L336.37 111.868C336.077 112.164 335.922 112.433 335.673 112.752C335.351 113.166 334.977 113.506 334.59 113.855C334.1 114.296 333.804 114.581 333.612 115.238L333.256 115.498C332.812 115.834 332.661 116.154 332.379 116.625C331.684 117.791 330.359 118.506 330.195 119.922C329.682 120.152 329.53 120.117 329.012 120.143C328.421 120.172 328.458 120.343 328.124 120.759L328.058 121.527L327.812 121.688C328.477 121.761 329.094 121.879 329.75 122L330.447 122.091L330.422 122.47L317.363 121.229L233.973 121.255L208.358 121.258C197.578 121.261 187.298 120.978 176.743 123.653C163.747 126.945 151.836 134.015 142.446 143.537C133.039 153.076 126.343 165.21 123.256 178.25C120.993 187.805 121.242 197.349 121.244 207.086L121.248 229.866L121.238 317.58C121.467 322.392 121.824 326.979 122.803 331.706C125.938 346.845 133.911 360.881 145.351 371.285C155.774 380.764 167.547 386.212 181.138 389.356C180.728 389.688 180.11 390.371 179.603 390.433C178.919 390.516 178.568 390.603 178.024 391.057C176.697 392.163 175.158 393.113 173.765 394.146L159.761 404.022L98.144 442.811L92.375 446.037C90.6623 447.025 88.9341 448.282 86.9878 448.749C88.6249 449.976 89.9384 451.458 91.5052 452.72L99.2242 458.707C101.18 460.268 103.16 462.091 105.25 463.468C105.889 463.89 106.596 464.201 107.217 464.649C111.163 467.5 115.076 470.483 119.37 472.807L145.498 487.253C149.923 489.476 154.495 491.17 159.021 493.125C176.867 500.835 196.23 505.751 215.379 508.927L229.625 510.859C232.927 511.189 236.654 511.041 239.836 512L-0 512L0 270.915L0 240.554ZM0 270.915L-0 512L239.836 512C236.654 511.041 232.927 511.189 229.625 510.859L215.379 508.927C196.23 505.751 176.867 500.835 159.021 493.125C154.495 491.17 149.923 489.476 145.498 487.253L119.37 472.807C115.076 470.483 111.163 467.5 107.217 464.649C106.596 464.201 105.889 463.89 105.25 463.468C103.16 462.091 101.18 460.268 99.2242 458.707L91.5052 452.72C89.9384 451.458 88.6249 449.976 86.9878 448.749C66.5336 431.2 49.4184 409.766 35.411 386.811L23.7673 364.854C13.0603 342.111 5.88188 317.481 2.45158 292.596C1.56438 286.16 0.469142 279.569 0.495522 273.058L0 270.915ZM0 240.554L0.275231 240.5C0.541325 233.003 1.51902 225.542 2.60711 218.13C5.67151 197.256 11.097 176.741 19.3491 157.297C21.1762 152.992 22.9562 148.621 25.1553 144.491C26.1188 142.08 27.4616 139.769 28.6377 137.454C31.8799 131.073 35.5004 124.867 39.371 118.847C49.4833 103.121 60.9636 88.4236 74.1598 75.1477C87.6198 61.6064 102.649 49.7806 118.698 39.4797C124.499 35.7566 130.735 31.6621 137.053 28.8961C137.85 28.1803 139.339 27.6372 140.33 27.1407L149.779 22.6369C173.975 11.7839 199.742 4.48972 226.11 1.41017L240.059 0.281018L240.076 0L-0 -0L0 240.554ZM0 240.554L0 270.915L0.495522 273.058C0.808822 270.969 0.401391 268.952 0.299493 266.875L0.227535 261.018L0.173518 247.775C0.195242 245.359 0.502924 242.907 0.275231 240.5L0 240.554ZM240.076 0L240.059 0.281018C242.911 0.505083 245.795 0.180079 248.65 0.133185L261.977 0.144329C265.599 0.168666 269.74 1.07586 273.291 0.50174L271.409 0L240.076 0Z"/>
	<path fill="#FEB741" fill-opacity="0.97647059" d="M240.076 0L271.409 0L273.291 0.50174C269.74 1.07586 265.599 0.168666 261.977 0.144329L248.65 0.133185C245.795 0.180079 242.911 0.505083 240.059 0.281018L240.076 0Z"/>
	<path fill="#FEB741" fill-opacity="0.98823529" d="M0 240.554L0.275231 240.5C0.502924 242.907 0.195242 245.359 0.173518 247.775L0.227535 261.018L0.299493 266.875C0.401391 268.952 0.808822 270.969 0.495522 273.058L0 270.915L0 240.554Z"/>
	<path fill="#FE5B71" d="M392.716 39.1059C396.126 41.1159 399.967 43.3204 402.964 45.9021C402.455 45.883 402.034 45.9954 401.66 45.635C401.399 45.3835 401.191 45.2487 400.874 45.0849C401.026 45.6602 401.383 45.8883 401.815 46.2655L401.765 47.0873L401 47.48L400.044 46.9018C399.371 47.3442 399.04 48.0725 398.403 48.5946C398.447 49.3778 398.527 49.4399 398.002 50.047C397.091 51.1023 396.171 51.7021 395.549 53.0039C395.19 53.7542 394.86 53.7844 394.313 54.313L394.08 54.6425C393.45 55.4681 392.476 55.9621 391.764 56.7881C391.167 57.4797 390.306 57.8939 389.675 58.5689L388.012 60.2526C387.708 60.5241 387.907 60.322 387.675 60.6829C387.409 61.0983 387.038 61.1339 386.688 61.4375C386.13 61.9201 385.636 62.5368 385.144 63.0842C383.836 64.5401 382.124 65.6951 380.95 67.2893C380.558 67.8204 379.625 68.7089 379.104 69.0971C378.63 69.4508 378.553 69.8057 378.198 70.2369L377.54 70.787C377.118 71.1679 376.826 71.6264 376.376 72.0018C375.917 72.3852 376.145 72.1697 375.762 72.6271C375.395 73.065 375.618 72.8558 375.167 73.1377C374.78 73.3795 374.778 73.5157 374.549 73.8745C374.008 74.7243 372.885 75.7926 371.899 76.0152L371.652 76.3597C371.225 76.9518 370.728 77.4591 370.322 78.0685C370.016 78.529 369.708 78.65 369.324 79.0126L368.734 79.7135L368.039 80.2561C367.476 80.6665 367.112 81.0289 366.684 81.5731C366.438 81.8856 366.142 82.0768 365.855 82.3404L365.425 82.819C364.587 83.7758 363.604 84.3716 362.902 85.4659C362.682 85.8088 362.767 85.6679 362.347 85.9251C361.787 86.2685 361.803 86.4765 361.448 86.9869C361.166 87.3919 360.669 87.7045 360.269 87.9711C359.541 88.4565 358.979 89.2444 358.34 89.8547C357.608 90.5544 356.742 91.3446 356.234 92.2134C355.468 92.6388 355.376 93.0466 354.773 93.4549C354.099 93.9107 353.671 94.5963 353.073 95.1346C352.814 95.368 352.692 95.5826 352.499 95.8677C352.115 96.4331 351.757 96.6558 351.198 97.0213C350.846 97.2513 350.767 97.4851 350.514 97.7829L350.293 97.975C349.934 98.2956 350.171 98.057 349.872 98.5183C349.476 99.1287 348.753 99.4646 348.244 100.133C348.042 100.399 347.649 100.618 347.392 100.815C346.968 101.139 346.845 101.403 346.514 101.783C346.284 102.046 346.123 102.125 345.925 102.433C345.689 102.802 345.78 102.663 345.359 102.922C344.556 103.414 344.324 104.073 343.398 104.517C343.08 105.057 343.068 105.233 342.507 105.543C341.778 105.946 341.346 106.707 340.682 107.234C339.613 108.084 338.947 109.209 338.069 110.18L337.909 110.442C337.664 110.824 337.442 110.829 337.105 111.091L336.675 111.569L336.37 111.868C336.077 112.164 335.922 112.433 335.673 112.752C335.351 113.166 334.977 113.506 334.59 113.855C334.1 114.296 333.804 114.581 333.612 115.238L333.256 115.498C332.812 115.834 332.661 116.154 332.379 116.625C331.684 117.791 330.359 118.506 330.195 119.922C329.682 120.152 329.53 120.117 329.012 120.143C328.421 120.172 328.458 120.343 328.124 120.759L328.058 121.527L327.812 121.688C328.477 121.761 329.094 121.879 329.75 122L330.447 122.091L330.422 122.47L317.363 121.229C314.294 120.562 310.78 121.017 307.625 120.809L308.875 120.75C309.981 120.659 311.1 120.829 312.18 120.723C312.681 120.674 313.248 120.636 313.75 120.689C314.505 120.768 315.24 120.754 316 120.75L316.251 120.501L316.627 120.25L316.377 119.875L316.501 119.501L317.875 119.127C318.434 118.485 319.015 117.957 319.688 117.438C320.225 117.023 320.619 116.73 320.912 116.099C321.081 115.733 321.163 115.502 321.5 115.25C321.834 115 322.029 114.851 322.306 114.519L323.876 112.688L324.875 111.5C325.511 110.847 326.027 110.132 326.684 109.492C327.216 108.975 328.349 108.163 328.596 107.501C328.803 106.948 329.547 106.393 329.973 105.966L334 101.939C334.31 101.599 334.559 101.309 334.918 101.016C336.415 99.7908 337.524 97.9615 339.125 96.8775C339.868 96.3743 340.35 95.9244 340.876 95.1875C342.67 92.6766 345.689 90.2496 347.912 88.0264C349.485 86.4541 351.219 84.2847 353 83C353.433 82.6877 353.726 82.5162 354.062 82.0625C355.181 80.5538 356.685 79.2298 358 77.875L358.312 77.8762L358.75 77.125C359.416 76.903 360.425 76.0447 360.688 75.3815L360.75 75.125C361.126 75.125 361.208 74.9701 361.501 74.7512C361.696 73.9005 366.241 69.419 367.137 68.8912L367.5 68.6887C367.696 68.2075 368.061 67.8545 368.439 67.5L370.691 65.2342L371.626 64.4375L372 63.9387C372.309 63.6581 372.501 63.6597 372.755 63.2811C372.995 62.9214 372.847 63.0662 373.169 62.8248C373.942 62.245 374.604 61.3461 375.25 60.625C375.73 60.6269 375.737 60.4514 376.054 60.1344C378.684 57.505 381.326 54.3397 384.176 52.0077C384.605 51.6569 385.037 51.3043 385.312 50.8125C385.681 50.1564 385.876 49.7583 386.5 49.3125L386.688 49.1875L386.562 48.9375L386.875 48.5L386.877 48.125C387.334 47.6434 387.839 47.2299 388.39 46.862L388.75 46.6275L389.251 46.2512C389.747 46.0134 389.788 45.9682 390.127 45.5C390.464 45.0358 391.116 43.8086 391.501 43.5012C391.765 43.2912 392.644 43.1202 393.001 43.0012L393.251 42.2512L393.75 42.1275C393.751 41.7548 393.705 41.4857 393.627 41.125C393.032 40.5758 392.737 40.2831 392.711 39.4483L392.716 39.1059Z"/>
	<path fill="#FCE11C" d="M25.1553 144.491C26.1188 142.08 27.4616 139.769 28.6377 137.454C31.8799 131.073 35.5004 124.867 39.371 118.847C49.4833 103.121 60.9636 88.4236 74.1598 75.1477C87.6198 61.6064 102.649 49.7806 118.698 39.4797C124.499 35.7566 130.735 31.6621 137.053 28.8961C137.031 29.3991 136.928 29.75 136.562 30.1238C136.262 30.4315 135.909 30.5508 135.5 30.625L135.062 31.1875L135.5 31.375C135.362 31.697 134.442 32.8286 134.188 32.9375L133.625 32.75L133.251 32.9375L133 32.875C132.834 33.2622 132.73 33.5956 132.625 34C131.737 34.3806 131.416 33.5342 130.812 34.5625C130.628 34.8769 130.184 35.0606 130 35.375C129.968 35.4289 129.641 36.2344 129.625 36.25C129.584 36.2906 129.085 36.3279 129 36.375C128.59 36.6015 128.285 37.2735 127.875 37.5C127.22 37.8617 127.078 37.5191 126.875 38.5C126.427 38.7985 126.329 38.7873 125.812 38.8125C125.594 39.1182 125.512 39.8509 125.438 39.9375C125.283 40.1179 124.893 39.935 124.75 40.125C124.461 40.5103 124.922 40.6876 124.352 41.2578C123.919 41.6907 124.046 41.4872 123.875 42L123.25 42.125L122.875 43L122.25 43.125C122.151 43.6181 122.264 43.7399 121.75 44L121.25 44.125L121 44.5C120.662 44.9751 120.541 45.1431 120 45.375L119.812 45.8125L119.547 46.0156C118.673 46.6954 118.182 47.6509 117.5 48.5L117.215 48.8633C116.954 49.1816 116.814 49.2712 116.5 49.5C115.742 50.0519 115.271 50.5264 114.812 51.3125C114.501 51.8466 113.932 52.1468 113.438 52.4375C112.741 52.8469 111.377 54.3289 111.062 55.0625L110.789 55.2109C110.102 55.6483 109.383 56.3135 109.062 57.0625L108.812 57.25C108.511 57.4846 108.267 57.7291 108 58C107.731 58.273 107.49 58.5189 107.246 58.8164C107.019 59.0935 106.818 59.2993 106.57 59.5469C105.94 60.1775 106.517 59.5384 106.062 60.3125C105.804 60.7523 105.361 61.0687 105.062 61.5625C104.451 62.5749 103.226 63.2329 102.562 64.3125C102.32 64.7076 101.708 64.9927 101.5 65.375C101.248 65.8379 101.546 65.8132 101.074 66.2852C100.289 67.0701 101.168 66.1464 100.562 67.0625C99.6851 68.391 97.3667 69.5249 96.875 71L96.4375 71.1875L96.2344 71.4531C95.9623 71.8029 95.7444 71.9897 95.4023 72.2695C94.9557 72.635 95.1073 72.458 94.875 73L94.4375 73.1875C94.1595 73.6878 94.2548 73.6944 93.6875 73.9375L93.4844 74.2031C93.2291 74.5313 93.012 74.7338 92.6914 74.9961C92.1117 75.4704 91.6108 75.8664 91.3125 76.5625L91.0408 76.7092C90.1401 77.2824 89.6198 78.1406 88.6875 78.6875C88.2208 78.9613 87.9767 79.3865 87.4375 79.6875C86.839 80.0216 85.8274 81.1945 85.5625 81.8125L85.2734 81.9766C84.6365 82.3819 84.1103 82.8676 83.8125 83.5625L83.4492 83.7461C82.6888 84.141 82.3023 84.6206 81.75 85.25C81.5026 85.5319 81.4609 85.5171 81.1523 85.7695C80.7057 86.135 80.8573 85.958 80.625 86.5L80.1875 86.6875L79.4688 87.5859C78.9955 88.1644 79.3565 87.7008 79.0056 88.2522C78.4519 89.1223 77.4694 89.6131 77.0625 90.5625L76.1484 91.2969C74.869 92.3437 73.6687 92.4113 72.8125 94.0625C72.6662 94.3446 72.4822 94.5557 72.3359 94.8594C71.9406 95.6803 71.1903 96.2525 70.4375 96.6875C70.0011 96.9397 69.6028 97.3914 69.25 97.75C68.8492 98.1575 69.1518 97.8609 68.6523 98.2695C68.2057 98.635 68.3573 98.458 68.125 99C67.0264 99.2197 66.1565 100.536 65.1875 101.188C64.876 101.397 64.6018 101.829 64.3958 102.139C63.9806 102.763 63.2094 103.639 62.5 103.875L62.375 104.5L61.75 104.625L61.625 105L61.1875 105.188L60.5 105.75L60.125 106.039C59.7093 106.379 59.8485 106.229 59.625 106.75L59.1875 106.938C58.6935 107.159 58.5591 107.324 58.25 107.75C56.7718 109.787 54.3691 111.188 53.0625 113.312C52.762 113.801 52.0347 114.447 51.5 114.625L51.3125 115.062L51.0625 115.25C50.7609 115.485 50.5165 115.729 50.25 116C49.89 116.366 50.1136 116.149 49.6992 116.488C49.3376 116.784 48.7466 117.563 48.375 117.75C47.8935 117.992 47.9346 117.706 47.4648 118.176C47.0468 118.594 47.2318 118.454 46.6875 118.688L46.375 119.25L45.75 119.375L45.375 120.25L44.75 120.375L44.5625 120.812C44.3194 121.227 43.8533 121.61 43.5625 122.062C43.2482 122.552 42.5315 122.896 42.25 123.375C41.9312 123.918 42.4083 123.73 41.75 124.25L39.5625 126.438L39.3125 126.312C38.7229 126.771 38.1466 126.635 37.8828 127.242C37.6674 127.738 37.4046 128.015 37 128.375L36.875 129L36.4375 129.188L36 129.625L36.0613 130L35.875 130.5L35.5 130.625C35.125 131.5 34.3273 132.191 34.125 133L33.75 133.125C33.5046 133.698 33.5854 133.406 33.4988 133.999L32.75 134.375L32.7461 134.738C32.6886 135.486 32.2728 135.889 31.75 136.375L31.7488 136.688L31.5 137C31.2788 137.307 30.6362 137.962 30.5 138.25C30.4015 138.458 30.5285 138.726 30.4375 138.938C30.2445 139.386 29.5814 139.726 29.3125 140.312C29.1538 140.659 28.9752 140.895 28.7383 141.191C28.4878 141.504 28.4319 141.616 28.375 142L28 142.125L27.6758 142.902C27.4939 143.303 27.3081 143.456 27 143.75L26.75 144L26.8113 144.5C26.5767 145.03 26.707 145.001 26.125 145.25C26.125 144.847 26.3171 144.6 26.5 144.25L26.0625 143.812L25.666 144.64L25.1553 144.491Z"/>
	<defs>
		<linearGradient id="gradient_7" gradientUnits="userSpaceOnUse" x1="73.215546" y1="350.35403" x2="144.00473" y2="423.74554">
			<stop offset="0" stop-color="#FF5E6D"/>
			<stop offset="1" stop-color="#F5238E"/>
		</linearGradient>
	</defs>
	<path fill="url(#gradient_7)" d="M35.411 386.811C35.7004 386.643 35.5766 386.737 35.8531 386.463L36.0625 386.251L36.2488 386.251C36.4624 386.897 37.0164 387.286 37.4988 387.751C37.5582 388.089 37.5998 388.228 37.8106 388.508L37.9988 388.751C38.3344 389.415 38.8112 389.744 39.375 390.25L39.5012 390.725C39.9294 390.762 40.1966 391.572 40.625 392L40.809 391.5L41.25 391.373C41.4153 391.7 41.3577 391.556 41.478 391.922L41.5625 392.188L42.25 392.123L42.6194 391.875L42.8125 392.188L43.0625 392.062C43.3818 392.245 43.6131 392.369 43.9705 392.472L44.0625 391.812C44.2337 391.258 44.4928 391.209 44.9988 390.999C45.8533 390.643 47.0992 389.355 47.5862 388.544C47.8879 388.042 47.5898 388.43 48.0529 387.874L48.8725 386.875C49.1129 386.521 49.2722 386.211 49.5529 385.874L49.8725 385.5C50.7136 384.449 51.7488 383.632 52.8125 382.812L53.0625 382.938L53.5 382.5L54 382.228L54.25 381.875C55.04 381.2 54.3949 382.02 54.8252 381.461C55.0368 381.186 55.2812 380.981 55.5 380.72C56.9378 379.004 58.7734 377.621 60.25 375.943L67 368.875L67.25 368.875L67.6262 368.438L68.25 367.939C69.3366 366.409 70.8402 365.098 72.1891 363.749C72.698 363.24 73.3753 362.326 73.9375 361.938C74.4713 361.568 74.4018 361.705 74.75 361.125L75.0625 361.126L75.6262 360.438C77.2627 358.326 79.5031 356.447 81.3989 354.544C81.9077 354.033 82.6252 352.995 83.2812 352.751L83.5 352.689C83.7791 352.002 84.4863 351.276 85.1248 350.899L85.5 350.689C85.6574 350.301 85.5604 350.43 85.8528 350.138L86.6275 349.375C87.172 348.839 87.5331 348.206 88.25 347.939C88.4291 347.498 88.6941 347.233 89 346.875L89.25 346.875L90.75 345.125L91.0625 345.126C91.5374 344.256 92.3469 343.663 93 342.939C93.956 341.878 95.0738 340.682 96.2422 339.861L96.5 339.689C96.8575 338.809 98.0571 337.882 98.75 337.189L104.439 331.5C104.807 331.155 105.161 330.856 105.48 330.462L105.75 330.125C106.168 330.024 106.274 329.931 106.59 329.614L106.939 329.25C107.665 328.552 108.302 327.714 109.125 327.127C109.922 326.56 110.47 325.832 111.25 325.25L112 324.689C113.311 323.471 114.681 322.376 115.894 321.012C116.219 320.648 116.421 320.651 116.875 320.5C117.259 319.96 117.645 319.648 118.174 319.269C118.586 318.974 118.369 318.698 118.627 318.375C118.814 318.141 119.191 318.114 119.375 317.877C119.506 317.709 119.363 317.413 119.501 317.251C119.595 317.141 120.075 317.098 120.125 317C120.481 316.296 119.813 315.224 120.375 314.377L120.5 314.875L120.75 314.875L120.741 308.321C120.742 307.237 120.615 305.996 120.875 304.949L120.936 312.55C120.952 314.134 120.859 315.812 121.188 317.366L121.238 317.58C121.467 322.392 121.824 326.979 122.803 331.706C125.938 346.845 133.911 360.881 145.351 371.285C155.774 380.764 167.547 386.212 181.138 389.356C180.728 389.688 180.11 390.371 179.603 390.433C178.919 390.516 178.568 390.603 178.024 391.057C176.697 392.163 175.158 393.113 173.765 394.146L159.761 404.022L98.144 442.811L92.375 446.037C90.6623 447.025 88.9341 448.282 86.9878 448.749C66.5336 431.2 49.4184 409.766 35.411 386.811Z"/>
</svg>
