<?xml version="1.0" encoding="utf-8" ?>
<svg xmlns="http://www.w3.org/2000/svg" xmlns:xlink="http://www.w3.org/1999/xlink" width="512" height="512">
	<path d="M253.578 208.101C265.856 207.544 277.297 211.513 286.825 219.246C296.375 226.998 302.417 238.901 303.696 251.051C305.052 263.928 301.035 276.639 292.852 286.626C286.585 294.274 277.556 300.02 268 302.561C265.041 303.348 262.023 303.67 258.986 303.957C255.842 303.988 252.718 304.012 249.593 303.599C241.868 302.579 234.538 299.559 228.175 295.098C217.555 287.656 211.052 276.475 208.683 263.875L208.369 261.875C206.933 247.777 210.918 235.084 219.969 224.233C228.339 214.198 240.816 209.103 253.578 208.101Z"/>
	<path d="M253.578 368.101C265.85 367.541 277.3 371.515 286.825 379.246C296.385 387.006 302.416 398.888 303.696 411.051C305.052 423.928 301.035 436.639 292.852 446.626C286.585 454.273 277.556 460.022 268 462.561C265.034 463.349 262.012 463.67 258.968 463.957C247.741 464.332 237.421 461.579 228.175 455.098C217.556 447.656 211.052 436.474 208.683 423.875L208.369 421.875C206.933 407.774 210.919 395.088 219.969 384.233C228.338 374.196 240.817 369.105 253.578 368.101Z"/>
	<path d="M253.578 48.1007C265.914 47.5416 277.24 51.529 286.828 59.2638C296.394 66.9815 302.419 78.9205 303.696 91.0508C305.052 103.928 301.035 116.639 292.852 126.626C286.585 134.273 277.556 140.022 268 142.561C265.034 143.349 262.012 143.67 258.968 143.957C247.738 144.333 237.423 141.58 228.175 135.099C217.556 127.657 211.052 116.474 208.683 103.875L208.369 101.875C206.933 87.7736 210.919 75.088 219.969 64.2331C228.336 54.1977 240.818 49.1028 253.578 48.1007Z"/>
</svg>
