<?xml version="1.0" encoding="utf-8" ?>
<svg xmlns="http://www.w3.org/2000/svg" xmlns:xlink="http://www.w3.org/1999/xlink" width="512" height="512">
	<path d="M0 445.025L-0 -0L244.849 0L266.908 0L512 0L512 446.107L512 458.39L512 512L458.892 512L445.355 512L262.892 512L249.355 512L66.8918 512L53.3553 512L-0 512L0 458.951L0 445.025ZM266.908 0L267.16 0.0828646C268.785 0.581175 270.521 0.637493 272.205 0.798615L279.58 1.61761C286.116 2.53871 292.733 4.02346 299.088 5.78678C341.577 17.576 377.772 46.1201 399.076 84.7464C419.739 122.212 424.872 167.732 412.745 208.812C404.351 237.248 388.357 262.801 366.701 283.009L356.74 291.495C354.722 293.084 352.552 294.588 350.626 296.281L466.875 296.365C467.362 298.007 467.005 300.767 467.008 302.506L467.016 319.258L467.011 393.841C483.13 398.657 496.565 408.393 504.694 423.34C507.211 427.969 509.229 433.048 510.34 438.202C510.879 440.7 511.039 443.779 512 446.107L512 0L266.908 0ZM0 445.025C0.893901 443.694 1.03202 441.172 1.31377 439.587C1.59758 437.99 2.02017 436.427 2.48838 434.875C3.64019 431.058 5.18238 427.369 7.0433 423.845C12.7285 413.078 21.61 404.172 32.4753 398.641C36.5025 396.591 40.6682 395.189 44.9745 393.871L45.0997 296.245L161.538 296.41C156.112 291.888 150.422 287.826 145.214 283.008C124.523 263.866 108.493 238.97 100.186 211.99C87.2969 170.124 91.4554 124.77 112.148 86.1056C127.182 58.0156 150.408 34.8872 178.319 19.6008C189.234 13.6228 201.019 9.13447 212.973 5.7509C219.681 3.85209 226.699 2.46573 233.599 1.48351C237.127 0.981312 241.258 1.14175 244.615 0.0795734L244.849 0L-0 -0L0 445.025ZM66.8918 512L249.355 512C246.947 511.081 244.12 510.795 241.598 510.211C237.009 509.149 232.644 507.409 228.461 505.257C214.236 497.94 203.497 485.034 198.7 469.804C193.914 454.607 195.637 437.903 203.047 423.845C208.724 413.075 217.614 404.172 228.475 398.641C232.502 396.591 236.668 395.189 240.974 393.872L241.008 326.582L124.807 326.468L90.9502 326.475C85.9123 326.478 80.4255 326.997 75.4495 326.437L75.0709 326.392L75.0108 393.841L84.6072 397.314C99.087 403.967 110.71 416.065 116.226 431.088C121.603 445.731 121.254 462.367 114.644 476.569C107.252 492.45 94.397 503.663 77.8637 509.354C74.3071 510.578 70.425 510.72 66.8918 512ZM262.892 512L445.355 512C442.822 511.033 439.838 510.745 437.186 510.115C432.628 509.032 428.241 507.23 424.092 505.066C410.065 497.751 399.429 484.869 394.699 469.804C389.924 454.593 391.63 437.915 399.047 423.845C404.719 413.084 413.623 404.168 424.475 398.641C428.502 396.591 432.668 395.189 436.975 393.871L437.007 326.582L320.807 326.468L286.95 326.475C281.912 326.478 276.425 326.997 271.449 326.437L271.071 326.392L271.011 393.841L280.607 397.314C295.061 403.954 306.732 416.069 312.225 431.079C317.593 445.747 317.261 462.342 310.644 476.569C303.259 492.449 290.391 503.665 273.864 509.354C270.307 510.578 266.425 510.72 262.892 512ZM181.034 177.875C180.46 179.028 180.763 180.906 180.847 182.174C181.23 187.988 182.211 193.966 184.066 199.5C190.259 217.974 203.065 233.579 220.62 242.31C227.216 245.591 234.332 248.001 241.631 249.106C249.487 250.295 257.46 250.058 265.378 250.075L271.731 250.103C272.44 250.116 273.478 249.996 274.131 250.27C270.623 253.288 267.458 256.885 264.182 260.169C262.907 261.447 260.26 263.504 259.688 265.125C260.279 266.56 262.696 268.364 263.869 269.554L274.32 280.005C276.386 282.06 278.407 284.308 280.668 286.139L324.801 241.937L329.449 237.295C330.148 236.593 331.11 235.847 331.552 234.963L280.508 183.877L266.464 197.844C264.15 200.16 261.384 202.5 259.432 205.118L273.426 219.09L274.499 219.999L259.249 220.148C254.905 220.164 250.335 220.222 246.046 219.482C238.048 218.102 230.115 214.292 224.265 208.626C216.678 201.279 211.845 192.326 210.951 181.681C210.852 180.501 210.823 179.295 210.672 178.123C210.663 178.056 210.703 177.95 210.642 177.921C209.879 177.559 188.942 177.79 185.963 177.834C184.52 177.855 183.09 177.94 181.65 177.809C181.315 177.779 181.442 177.788 181.034 177.875ZM231.398 40.3554L180.186 91.5202C184.835 95.627 189.127 100.318 193.517 104.708L218.517 129.708L226.624 137.812C228.172 139.357 229.757 141.181 231.545 142.437L252.526 121.462L237.733 106.425C238.675 106.25 239.688 106.466 240.649 106.461L247.318 106.381C252.572 106.357 258.086 106.045 263.312 106.635C269.631 107.349 275.407 109.488 280.9 112.625C293.551 120.818 301.127 133.548 301.22 148.747L331.256 148.918L330.939 141.928C330.746 139.47 330.3 136.923 329.842 134.499C326.757 118.188 317.396 103.541 304.801 92.9305C294.495 84.2491 280.684 78.2777 267.25 76.9767C261.9 76.4585 256.397 76.593 251.023 76.5732L243.967 76.5136C242.245 76.4564 240.495 76.2493 238.776 76.4019L238.461 76.4325C238.074 76.4679 238.237 76.4568 237.771 76.448L252.529 61.4442L231.398 40.3554ZM458.892 512L512 512L512 458.39L511.919 458.61C511.365 460.188 511.177 461.867 510.844 463.501C510.346 465.937 509.737 468.325 508.949 470.683C503.886 485.834 492.888 498.719 478.5 505.781C475.386 507.31 471.829 508.966 468.448 509.774C465.389 510.504 461.774 510.831 458.892 512ZM0 458.951L-0 512L53.3553 512C51.3176 511.222 48.9387 510.939 46.8015 510.479C43.7172 509.815 40.6833 508.914 37.7603 507.718C21.959 501.254 9.32236 488.416 3.52558 472.309C2.51558 469.502 1.8077 466.609 1.14386 463.704C0.829091 462.327 0.77083 460.614 0.185727 459.337L0 458.951Z"/>
</svg>
