<?xml version="1.0" encoding="utf-8" ?>
<svg xmlns="http://www.w3.org/2000/svg" xmlns:xlink="http://www.w3.org/1999/xlink" width="512" height="512">
	<path d="M0 392.355L-0 -0L512 0L512 174.838L512 180.693L512 512L-0 512L0 475.971L0 392.355ZM512 180.693C510.461 184.399 509.35 187.598 506.265 190.375C502.884 193.418 498.989 196.095 495.385 198.881L475.107 214.6L411.527 263.792L349.617 311.738L334.744 323.26C331.233 325.987 327.241 329.838 323.13 331.522C319.631 332.955 316.114 333.141 312.5 331.972C307.888 330.48 303.853 327.71 301.502 323.352C300.762 321.979 300.22 320.427 300.034 318.875C299.385 313.438 299.777 307.626 299.782 302.135L299.794 273.049C299.795 267.914 300.029 262.648 299.729 257.53C290.761 258.169 281.943 258.885 273.054 260.308C209.336 270.506 150.624 302.844 108.361 351.676C98.4712 363.102 89.5154 375.282 81.5853 388.148L67.0066 414.5L47.0835 452.028L36.0118 472.923C34.3515 476.042 32.8567 479.621 30.7478 482.444C27.9173 486.233 23.9886 488.651 19.2241 489.004C15.8409 489.254 12.8727 488.729 9.77611 487.393C5.89669 485.72 2.70144 482.54 1.09152 478.625C0.735386 477.759 0.568128 476.719 0 475.971L-0 512L512 512L512 180.693ZM0 392.355C0.560414 391.032 0.598284 389.453 0.726645 388.031L1.37788 379.244L2.48168 369.497L5.74791 349.178C14.6058 305.047 32.6124 263.248 59.149 226.845C65.8613 217.637 72.993 208.543 80.7635 200.193C88.3916 191.996 96.3159 183.838 104.744 176.458C159.106 128.86 227.388 101.384 299.63 98.7914L299.771 55.2434C299.769 49.4028 299.348 43.2032 299.934 37.4189C300.115 35.6352 300.631 34.0468 301.376 32.4222C303.134 28.5822 306.843 25.3837 310.776 23.9492C315.215 22.3298 319.829 22.3186 324.125 24.3518C326.969 25.6977 329.481 28.012 331.971 29.9172L344.314 39.4758L387.707 73.066L468.324 135.488L493.225 154.756C497.603 158.13 502.339 161.398 506.434 165.1C509.454 167.83 510.677 171.117 512 174.838L512 0L-0 -0L0 392.355ZM334.01 74.7033L333.947 102.363L333.936 111.765C333.929 114.469 333.948 117.227 333.32 119.875C332.594 122.936 330.908 125.697 328.665 127.884C326.288 130.202 323.155 131.943 319.875 132.532C316.976 133.053 313.749 132.815 310.808 132.827L296.169 133.109C277.501 134.084 258.566 136.924 240.5 141.744C220.351 147.121 200.795 154.543 182.331 164.266C135.674 188.835 96.3662 226.687 70.1964 272.484C47.8332 311.62 35.2294 356.544 34.2213 401.625L34.2335 403.421L53.3725 368.875C62.9272 353.431 73.9581 338.573 86.1386 325.098C95.7563 314.459 106.143 304.713 116.922 295.272C124.705 289.204 132.249 282.935 140.416 277.356C183.334 248.042 233.986 228.847 285.873 224.148L309.863 222.648C312.694 222.583 315.675 222.344 318.482 222.71C323.185 223.323 327.435 225.497 330.35 229.298C331.063 230.228 331.645 231.114 332.125 232.187C332.914 233.952 333.439 235.612 333.692 237.535C334.231 241.632 333.948 246.01 333.942 250.14L333.949 269.406L334.044 280.704L348.902 269.055L373.777 249.803L437.895 200.108L456.56 185.625L463.568 180.242C464.567 179.473 465.983 178.608 466.708 177.597L334.01 74.7033Z"/>
</svg>
