<?xml version="1.0" encoding="utf-8" ?>
<svg xmlns="http://www.w3.org/2000/svg" xmlns:xlink="http://www.w3.org/1999/xlink" width="1024" height="1024">
	<path fill="#007AFF" transform="scale(2 2)" d="M115.389 253.844L108 260.008C104.931 262.99 95.4133 273.114 95.4128 277.196L59.7712 255.041C39.834 241.798 27.7088 232.651 23.7553 206.324C22.9318 200.84 23.2334 195.066 23.2309 189.527L23.2411 147.042C23.251 143.736 22.866 139.436 23.7325 136.254L25.5756 127.907C31.221 106.902 45.8965 97.1199 62.9964 85.8432L132.762 40.1565C145.861 31.725 156.394 24.196 172.588 23.6195C190.395 23.7062 201.154 29.8663 215.474 40.4004L224.984 47.5184L197.615 64.4568L98.1633 130.389C94.5886 132.847 79.7982 140.768 79.4657 145.565L79.2873 191.842C80.4037 193.405 83.8042 195.242 85.4574 196.44L126.182 224.015C131.775 227.746 137.28 231.927 143.103 235.274C140.632 237.321 137.779 239.076 135.102 240.853L115.389 253.844Z"/>
	<path fill="#007AFF" transform="scale(2 2)" d="M109.504 324.665C109.456 303.775 109.533 282.35 128.117 267.922C132.837 264.257 138.271 261.321 143.298 258.078L277.411 172.212C282.724 168.39 281.349 168.373 281.358 161.847L281.356 130.115C281.352 126.365 281.886 121.506 280.856 117.888L280.742 117.5C279.957 114.664 276.434 108.971 272.764 109.663C269.515 110.275 265.517 113.615 262.704 115.36L234.364 133.195C229.358 136.379 224.359 140.224 218.948 142.668C187.037 157.075 161.111 112.479 188.681 92.0509C196.143 86.5216 204.492 81.7935 212.364 76.8661L231.677 65.1045C244.595 57.3351 256.126 50.7625 271.433 49.3548C305.87 46.6614 335.775 72.7989 338.162 107.625C338.476 112.197 338.273 116.9 338.274 121.486L338.269 160.25C338.251 199.622 327.675 208.59 294.35 228.848L183.403 299.435C163.493 312.059 165.786 312.812 165.77 335.166L165.752 359.781C165.747 364.274 166.239 369.983 164.896 374.303C161.724 384.506 156.03 392.027 145.5 395.741L144.755 396.003C129.822 400.736 114.219 390.829 110.193 376.195C109.4 373.314 109.512 370.119 109.508 367.158L109.504 324.665Z"/>
	<path fill="#007AFF" transform="scale(2 2)" d="M330.313 295.749L266.187 337.153C260.85 340.581 253.59 344.133 249.983 349.557C251.715 351.435 253.852 352.787 255.935 354.235L290.834 377.652C297.81 382.234 305.296 386.67 311.646 392.103C331.567 409.149 322.526 444.885 297.178 446.738C285.567 447.586 279.286 444.231 270.146 437.799L228.732 410.366C222.555 406.253 216.176 402.201 210.574 397.31C183.174 373.386 182.816 325.135 213.041 303.243L315.127 237.541C330.835 227.493 340.463 219.858 360.14 218.606L360.201 218.597C379.863 217.45 395.232 228.015 410.914 238.375L454.952 266.784C473.408 278.216 487.474 291.612 488.681 315.351L488.749 338.532C488.714 375.418 485.758 389.002 455.369 409.36L432.889 424.053C424.191 429.851 415.646 436.662 406.283 441.336C374.039 457.432 346.97 413.015 374.734 389.406C379.388 385.449 384.817 382.071 389.837 378.579L428.501 352.276C429.716 351.515 431 351.246 431.996 350.179L432.024 331.795C432.02 328.932 432.32 325.63 431.832 322.822C428.372 319.566 424.34 316.886 420.399 314.253L383.911 290.381C379.487 287.542 375.119 284.499 370.525 281.941C358.508 275.251 354.778 279.844 344.51 286.533L330.313 295.749Z"/>
</svg>
