<?xml version="1.0" encoding="utf-8" ?>
<svg xmlns="http://www.w3.org/2000/svg" xmlns:xlink="http://www.w3.org/1999/xlink" width="512" height="512">
	<path d="M62.8618 318.125L87.0408 318.198C87.0615 332.87 90.1902 348.165 96.3398 361.495L98.9138 366.852C99.7364 368.399 101.402 370.559 101.35 372.323L100.625 372.998C93.5775 373.767 85.7597 373.213 79.375 369.951C71.916 366.14 66.3786 359.648 63.6968 351.75C63.2478 350.428 62.9971 349.113 62.7145 347.75C61.6634 342.682 62.1132 337.007 62.1094 331.823C62.1061 327.421 61.8929 322.889 62.2581 318.508L62.8618 318.125Z"/>
	<path d="M275.949 387.375L335.225 387.283C335.8 398.39 337.854 409.828 340.575 420.599C341.791 425.411 343.093 430.387 344.912 435.009L283.125 435.188L213.92 435.126L217.779 422.408C221.17 421.203 224.759 420.542 228.186 419.361C241.058 414.927 252.686 408.266 263.16 399.568C265.747 397.421 268.159 395.003 270.524 392.614C272.053 391.071 273.978 388.29 275.949 387.375Z"/>
	<path d="M175.729 449.349C179.487 449.008 183.378 449.181 187.15 449.181L206 449.179L266.007 449.176L343.127 449.181L367.985 449.183C372.718 449.184 377.518 449.011 382.242 449.285C384.959 449.442 387.665 450.131 390.055 451.459C394.156 453.737 397.992 457.654 399.22 462.3C400.013 465.298 400.437 468.163 399.903 471.273C399.03 476.357 396.153 480.906 391.889 483.829C389.428 485.516 387.007 486.501 384.063 486.977C380.694 487.399 377.183 487.255 373.79 487.255L357.558 487.258L304.714 487.261L219.854 487.255L192.375 487.252L177.468 487.193C174.345 487.039 171.682 486.392 168.925 484.917C164.662 482.638 161.218 478.697 159.828 474.03L159.711 473.625C158.679 470.135 158.706 465.944 159.842 462.482L159.963 462.125C161.197 458.377 163.645 454.97 166.883 452.7C169.632 450.773 172.431 449.83 175.729 449.349Z"/>
	<path d="M303.016 318.105L496.984 318.194L496.989 334.617C497.008 341.3 497.13 347.621 494.54 353.938C491.38 361.641 485.072 367.694 477.443 370.91C474.834 372.173 471.843 372.778 468.967 373.021C462.597 373.558 456.017 373.251 449.621 373.253L416.328 373.257L324.976 373.249L296.457 373.24L285.797 373.118C292.103 363.014 296.76 350.784 298.995 339.091C299.797 334.896 300.464 330.641 300.755 326.375L301.09 320.492C301.112 320.111 301.046 318.934 301.198 318.625C301.288 318.441 301.483 318.329 301.625 318.181L303.016 318.105Z"/>
	<path d="M276.663 15.1187C293.983 14.3033 310.74 20.3886 323.943 31.5249C337.654 43.0897 345.992 60.0789 347.446 77.875C348.894 95.6111 342.988 113.843 331.368 127.323C321.736 138.497 308.575 146.599 294.134 149.795C290.443 150.612 286.802 150.937 283.043 151.204C265.255 152.106 247.637 145.947 234.294 134.139C220.773 122.174 212.595 105.1 211.517 87.1094C210.397 68.4225 217.164 50.678 229.534 36.7934C241.529 23.3299 258.91 16.1999 276.663 15.1187ZM283.905 40.125C281.63 42.4354 279.905 45.6054 278.115 48.3118L269.62 61.0786L258.066 78.423C256.118 81.3518 254 84.243 252.239 87.2857C251.776 88.0871 251.341 88.9085 251.384 89.8631C251.414 90.5195 251.752 91.156 252.277 91.5537C254.07 92.9123 276.105 92.3512 279.785 92.3631L275.408 112.687C274.567 116.39 273.397 120.411 272.981 124.177C272.895 124.953 272.897 125.288 273.25 125.972C273.992 126.296 274.342 126.312 275.125 126.129C277.606 123.937 279.522 120.06 281.364 117.262L289.039 105.778L301.033 87.7537L307.005 78.75C307.347 78.1754 307.652 77.4736 307.679 76.7939C307.703 76.1908 307.435 75.3481 306.98 74.9493C306.194 74.261 304.786 74.2055 303.785 74.1532L279.064 74.0213L279.142 73.7788C280.928 68.0483 281.871 61.7807 283.146 55.8984C284.123 51.3925 285.543 46.721 286.097 42.1637C286.198 41.3288 286.198 41.1449 285.849 40.375C284.962 39.9604 284.831 40.0008 283.905 40.125Z"/>
	<path d="M188.012 225.1C208.215 224.181 227.419 228.736 244.512 239.744C264.833 252.83 279.884 274.135 284.907 297.832C290.078 322.231 285.729 347.605 272.042 368.554C257.972 390.089 236.094 404.398 210.946 409.473C191.719 413.352 170.583 409.979 153.093 401.396C147.826 398.811 143.096 395.596 138.241 392.34C136.443 393.894 116.01 414.126 115.969 414.404C115.945 414.574 116.555 415.902 116.648 416.164C117.547 418.691 117.68 421.903 116.712 424.428L116.581 424.754C116.111 425.959 115.563 427.001 114.737 428C111.32 432.134 106.991 435.894 103.194 439.691L79.9124 462.963L58.3826 484.516L51.9507 490.962C50.3978 492.506 48.8332 494.159 46.9656 495.324C44.4795 496.875 41.0296 497.385 38.1861 496.61C36.4529 496.138 34.8242 495.259 33.3877 494.189C31.0514 492.448 28.9175 489.867 26.8486 487.792L20.3974 481.352C18.9426 479.877 17.2999 478.307 16.3356 476.451C14.8968 473.683 14.7148 470.086 15.7392 467.141C16.4001 465.242 17.4662 463.726 18.7856 462.231C21.9472 458.648 25.5736 455.334 28.9585 451.952L47.7136 433.204L70.708 410.202L83.4984 397.522C84.2256 396.857 84.9708 396.358 85.8587 395.927L86.25 395.742L86.8763 395.432C90.5199 393.837 94.0248 394.655 97.5841 395.939C98.3708 395.423 98.9949 394.555 99.6508 393.875L103.247 390.269C108.663 384.865 114.52 379.585 119.579 373.865C119.125 372.208 117.092 370.039 116.073 368.52L113.277 363.882C106.669 352.544 102.555 339.335 101.436 326.255C99.3834 302.267 106.746 276.77 122.546 258.375C139.504 238.632 162.037 227.039 188.012 225.1ZM189.089 242.857C170.645 243.416 151.964 252.555 139.375 265.917C125.463 280.684 118.058 300.225 118.716 320.495C119.356 340.235 127.943 359.31 142.395 372.801C156.887 386.329 176.367 394.001 196.258 393.263L199.688 393.068C218.308 391.635 237.405 382.988 249.723 368.712C252.419 365.588 255.024 362.519 257.291 359.053C266.519 344.947 270.54 328.223 269.229 311.467C267.707 292.031 258.093 273.497 243.362 260.777C232.019 250.982 217.738 244.722 202.85 243.023C198.361 242.511 193.596 242.636 189.089 242.857Z"/>
	<path d="M188.891 257.349C204.952 256.377 219.058 260.626 231.936 270.382C243.635 279.245 252.077 294.099 254.158 308.567C256.447 324.485 252.763 340.877 243.025 353.818C234.963 364.532 223.944 372.489 211.032 376.332C207.402 377.412 203.782 377.967 200.045 378.498C184.891 380.1 168.507 375.272 156.606 365.746C143.54 355.287 135.416 340.602 133.614 323.964C131.848 307.645 137.258 291.237 147.616 278.625C157.68 266.371 173.191 258.715 188.891 257.349ZM190.402 285.886C176.379 285.975 161.585 292.751 151.792 302.651C148.695 305.782 145.773 309.355 143.631 313.219C142.776 314.763 142.033 316.316 142.048 318.131C142.086 323.04 149.991 331.505 153.543 334.782C165.352 345.674 181.13 350.841 197.089 350.159C212.934 349.159 227.901 342.774 238.503 330.721C241.602 327.199 246.458 321.904 246.034 316.898C245.881 315.097 244.6 313.227 243.645 311.741C240.272 306.498 236.094 301.945 231.195 298.098C219.514 288.924 205.128 285.04 190.402 285.886Z"/>
	<path d="M217.227 310.328C216.279 307.985 215.326 306.035 213.991 303.891L218.301 306.307C217.932 306.712 217.879 306.641 217.834 307.218C217.75 308.281 217.308 309.238 217.227 310.328Z"/>
	<path d="M218.301 306.307C223.393 309.21 227.251 313.134 230.853 317.688C226.986 323.883 220.691 328.63 214.214 331.857C218.21 324.716 219.408 318.338 217.227 310.328C217.308 309.238 217.75 308.281 217.834 307.218C217.879 306.641 217.932 306.712 218.301 306.307Z"/>
	<path d="M172.809 304.625L173.365 304.504C173.556 305.171 172.027 307.395 171.688 308.25C169.119 314.741 169.273 321.6 171.951 328C172.538 329.403 173.357 330.667 174.146 331.964L166.621 327.415C163.338 325.079 159.373 321.46 157.378 317.912C161.062 311.813 166.708 307.965 172.809 304.625Z"/>
	<path d="M194.06 307.582C195.256 307.695 196.487 307.884 197.625 308.29C200.358 309.264 202.315 311.228 203.514 313.825C204.536 316.037 204.571 319.169 203.684 321.425L203.552 321.75C203.234 322.572 202.92 323.207 202.378 323.913C200.209 326.742 197.682 327.825 194.19 328.228C192.97 328.105 191.739 327.986 190.568 327.603C188.326 326.87 185.929 324.78 184.892 322.647L184.708 322.25C183.671 320.042 183.62 316.875 184.388 314.563C185.145 312.282 186.942 309.954 189.123 308.853L189.466 308.688C190.963 307.948 192.421 307.79 194.06 307.582Z"/>
	<path d="M90.5457 61.341L200.316 61.2172C196.832 73.7691 196.453 87.6405 199.184 100.373C203.876 122.259 217.229 140.768 235.992 152.817C253.824 164.268 276.537 167.912 297.161 163.381C318.521 158.689 337.402 145.288 349.098 126.835C358.533 111.947 362.781 94.1608 361.387 76.618C360.971 71.3828 359.935 66.3523 358.803 61.2345L440.452 61.1854L462.796 61.1858C468.046 61.1861 474.207 60.5652 479.299 61.8573C484.993 63.3022 490.407 66.8362 493.425 71.9771C495.539 75.5785 496.513 78.7006 496.872 82.875C497.117 85.7341 496.979 88.6865 496.98 91.5562L496.982 106.549L496.986 154.032L496.985 304.072L484.625 304.136L300.159 304.081C299.569 299.981 298.945 295.904 297.949 291.875C294.562 278.178 288.265 265.28 279.9 253.95C263.378 231.571 237.749 216.126 210.216 212.102C181.649 207.926 152.65 215.199 129.547 232.464C106.351 249.797 92.0608 275.632 87.9033 304.078L62.1092 304.112L62.119 154.234L62.1202 111.219L62.1221 98.3074C62.123 94.81 62.0556 91.2233 62.5222 87.75C63.2062 82.6579 65.4108 77.2781 68.6444 73.2893C74.3349 66.2697 81.5421 62.297 90.5457 61.341Z"/>
</svg>
