<?xml version="1.0" encoding="utf-8" ?>
<svg xmlns="http://www.w3.org/2000/svg" xmlns:xlink="http://www.w3.org/1999/xlink" width="513" height="512">
	<path transform="scale(1.00195 1)" d="M0 240.856L-0 -0L241.341 0L270.411 0L512 0L512 242.344L512 269.903L512 512L270.908 512L241.347 512L-0 512L0 270.899L0 240.856ZM270.908 512L512 512L512 269.903L511.921 270.137C511.184 272.485 511.238 275.348 511.037 277.802L509.918 288.874C508.422 300.61 506.02 312.242 502.943 323.662C491.488 366.176 468.057 406.107 436.854 437.154C418.714 455.204 398.069 470.222 375.603 482.418C351.595 495.452 324.734 504.145 297.862 508.736L280.61 510.839C277.578 511.148 273.744 510.95 270.908 512ZM270.411 0L270.681 0.0826208C272.441 0.582595 274.317 0.621791 276.133 0.767241L285.836 1.62688C297.136 3.04016 308.425 5.03097 319.448 7.91376C359.913 18.4968 396.801 38.2778 427.891 66.2851C438.95 76.2481 448.867 87.2875 458.075 98.9549C465.328 108.144 472.074 117.954 477.864 128.137C492.517 153.909 503.243 182.215 508.15 211.513L510.75 230.756L511.354 238.019C511.474 239.462 511.518 240.971 512 242.344L512 0L270.411 0ZM0 270.899L-0 512L241.347 512C240.053 511.513 238.652 511.469 237.284 511.342L230.137 510.722L213.75 508.539C187.03 503.953 161.438 495.477 137.375 482.951C74.5602 450.251 27.7028 391.549 8.92232 323.388C5.91073 312.457 3.70581 301.236 2.21152 290L1.00139 278.27C0.799706 275.989 0.807746 273.284 0.078141 271.115L0 270.899ZM0 240.856C0.682759 239.267 0.678356 237.178 0.827858 235.464L1.71126 225.936L4.61137 207.271C10.5558 177.943 20.9286 149.474 36.625 123.902L50.9887 102.606C54.7765 97.0247 59.5543 91.875 63.944 86.7579C71.3948 78.0725 79.514 70.2505 88.125 62.7356C119.264 35.5599 156.227 16.7749 196.33 6.96086C206.029 4.58713 215.989 2.90558 225.896 1.69375L235.058 0.793473C237.04 0.638143 239.174 0.641376 241.09 0.0796529L241.341 0L-0 -0L0 240.856Z"/>
	<path fill="#FEFEFE" transform="scale(1.00195 1)" d="M108.837 105.498L196.585 105.492L272.476 216.087L367.587 105.479L393.539 105.49L284.004 232.675C284.575 234.075 285.787 235.451 286.659 236.708L292.387 245.033L316.574 280.213L403.134 406.257L391.625 406.269L315.466 406.27L309.196 397.045L297.042 379.357L255.091 318.29L241.529 298.567C239.555 295.693 237.081 292.721 235.516 289.632L235.407 289.408L134.993 406.125C134.179 406.668 111.867 406.264 108.916 406.268L223.647 272.858C223.483 272.088 222.904 271.449 222.464 270.803L219.4 266.35L207.603 249.199L142.59 154.568L121.161 123.406C117.16 117.555 113.304 111.339 109.007 105.717L108.837 105.498Z"/>
	<path transform="scale(1.00195 1)" d="M144.145 125.017L184.095 125.027L224.795 183.249L311.225 306.922L347.405 358.677L360.425 377.313C362.559 380.367 364.917 383.376 366.876 386.536C367.117 386.925 367.166 387.173 367.145 387.625C363.612 387.127 359.321 387.562 355.732 387.564L327.552 387.528C326.009 384.602 323.713 381.867 321.819 379.143L308.702 360.394L271.954 307.811L193.527 195.632L144.145 125.017Z"/>
</svg>
