<?xml version="1.0" encoding="utf-8" ?>
<svg xmlns="http://www.w3.org/2000/svg" xmlns:xlink="http://www.w3.org/1999/xlink" width="512" height="512">
	<path d="M0 174.273L0 -0L512 0L512 393.837L512 475.732L512 512L-0 512L0 180.984L0 174.273ZM0 180.984L-0 512L512 512L512 475.732C511.196 477.157 510.765 478.829 510.037 480.305C508.503 483.413 505.103 486.091 502 487.507C498.17 489.254 492.795 489.733 488.821 488.17L488.5 488.041C485.425 486.871 482.901 484.957 481.027 482.222C478.917 479.142 477.377 475.581 475.607 472.296L464.824 451.96L447.152 418.681L430.657 388.663C426.18 381.243 421.199 374.045 416.025 367.094C376.805 314.397 318.824 277.458 254.798 263.272C243.898 260.857 232.924 259.309 221.838 258.063C218.784 257.72 215.705 257.919 212.654 257.447L212.247 257.381L212.214 301.405L212.207 312.385C212.202 314.779 212.401 317.476 211.741 319.791L211.625 320.177C211.252 321.471 210.846 322.602 210.155 323.766C207.46 328.304 203.266 330.973 198.25 332.317C195.109 333.158 192.227 332.68 189.194 331.671C186.428 330.752 183.783 328.447 181.521 326.655L174.157 320.932L153.966 305.287L68.0511 238.765L24.8121 205.301C18.4401 200.336 11.6511 195.613 5.57313 190.299C3.83692 188.781 2.38776 186.718 1.44475 184.618C0.967903 183.556 0.717727 182.396 0.195536 181.359L0 180.984ZM0 174.273L0.13265 174.035C0.825934 172.763 1.1617 171.408 1.76363 170.107C2.76555 167.941 4.37803 166.073 6.14354 164.492C8.82917 162.086 11.8593 159.96 14.718 157.755L29.5397 146.301L78.9557 108.056L145.662 56.3881L170.75 36.9725L184.948 26.0124C186.43 24.9327 188.035 24.0348 189.797 23.5066C194.405 22.1259 199.402 22.7428 203.591 25.1145C207.564 27.3642 210.406 30.8681 211.668 35.25L211.779 35.6208C212.565 38.4208 212.202 42.14 212.207 45.0513L212.214 60.2537L212.165 98.7101C225.356 99.3383 238.455 100.436 251.5 102.563C321.25 113.938 384.689 149.132 432.14 201.337C469.714 242.675 495.103 293.995 506.137 348.665C507.877 357.283 509.271 366.175 510.134 374.923L511.027 384.281C511.247 387.344 511.123 390.901 512 393.837L512 0L0 -0L0 174.273ZM177.416 75.125L145.174 100.049L83.9616 147.431L57.4067 168.015L49.8097 173.874C48.2212 175.115 46.6813 176.476 44.9614 177.531L178.061 280.649L178.091 252.544L178.095 243.525C178.098 240.857 178.048 238.074 178.655 235.46C179.375 232.363 181.111 229.513 183.377 227.308C185.901 224.852 188.787 223.483 192.246 222.895C195.835 222.284 199.6 222.575 203.228 222.681L223.905 223.927C277.655 229.178 328.083 247.587 372.582 278.195L395.361 295.652L412.76 311.568C430.397 329.004 446.306 348.602 459.203 369.809L470.119 388.912C472.672 393.698 474.997 398.693 477.925 403.256C477.214 388.947 476.184 374.798 473.665 360.673C462.898 300.305 431.972 245.081 386.505 203.976C352.333 173.083 310.329 150.872 265.5 140.239C255.508 137.869 245.201 135.811 234.98 134.756L214.107 133.017L202.019 132.82C197.544 132.832 193.233 133.16 188.946 131.608C185.119 130.223 181.808 126.891 179.922 123.375L179.732 123.037C178.949 121.607 178.485 119.74 178.306 118.125C177.812 113.669 178.079 109.017 178.079 104.531L178.094 80.8097C178.095 79.5725 178.47 76.0995 177.884 75.1497L177.416 75.125Z"/>
</svg>
