<?xml version="1.0" encoding="utf-8" ?>
<svg xmlns="http://www.w3.org/2000/svg" xmlns:xlink="http://www.w3.org/1999/xlink" width="513" height="512">
	<path transform="scale(1.00195 1)" d="M247.751 16.1283C262.982 15.7971 277.993 16.5023 293.049 18.8473C329.464 24.5191 364.457 38.8811 394.511 60.1705C402.36 65.7305 410.083 71.7474 417.133 78.3022C428.292 88.6776 438.643 99.7808 447.829 111.949C477.827 151.684 494.286 199.993 495.931 249.659C497.982 311.572 474.046 374.222 431.738 419.371C388.132 465.905 327.875 493.849 264.015 495.953C256.093 496.065 248.108 496.145 240.2 495.585C185.759 491.732 134.322 469.797 93.9538 433.053C47.9844 391.211 19.3313 331.005 16.3364 268.861C13.6982 214.121 29.223 160.089 61.3443 115.584C66.1323 108.95 71.193 102.341 76.7121 96.295C86.5334 85.5368 97.0589 75.5163 108.53 66.5302C138.787 42.8287 175.275 26.7265 213.054 19.8422C224.571 17.7435 236.069 16.659 247.751 16.1283ZM96.6057 184.625C95.7444 185.462 96.0415 186.851 96.0224 188.033L96.0012 234.614L96.0033 326.188L96.0104 363.721L96.0142 374.738C96.0152 377.334 95.8879 379.949 96.4443 382.5L96.5212 382.875C97.4282 387.157 100.264 390.889 103.894 393.245C106.605 395.005 109.577 395.775 112.789 395.936L134.712 395.998L177.144 395.999L306.507 395.992L371.804 395.996L389.36 395.991C393.983 395.99 398.772 396.329 403.307 395.324C406.318 394.657 408.87 392.837 411.086 390.763C413.893 387.746 415.351 384.539 415.831 380.461C416.138 377.853 416.007 375.12 416.007 372.493L416.009 359.983L416.013 318.141L415.979 184.896C415.114 184.631 413.918 184.837 413 184.838L404.724 184.789L358.269 184.759L147.433 184.76L110.214 184.766L102.037 184.829C100.262 184.864 98.3242 185.109 96.6057 184.625ZM113.595 116.113C108.031 116.584 103.756 117.689 100.001 122.131C98.2375 124.216 96.9943 126.715 96.4539 129.391C95.9453 131.91 96.0157 134.504 96.0135 137.06L96.0107 146.487L96.0337 173.086L399.125 173.106L415.995 173.139L416.013 147.749L416.003 137.437C415.996 134.219 416.045 130.987 415.133 127.864C414.381 125.286 412.689 122.82 410.813 120.93C408.11 118.208 404.659 116.725 400.883 116.313C397.031 115.892 393.04 116.076 389.167 116.075L370.235 116.074L307.727 116.075L182.768 116.08L114.799 116.102L113.595 116.113Z"/>
	<path transform="scale(1.00195 1)" d="M125.328 138.861L140.029 138.825L168.337 138.817L194.757 138.821L209.117 138.882C210.484 138.948 211.718 139.033 212.96 139.663C214.318 140.352 215.182 141.424 215.612 142.875C216.065 144.403 215.911 146.123 215.081 147.509C213.846 149.571 212.185 149.989 210.012 150.445L190.2 150.476L153.004 150.482L133.818 150.493C130.663 150.494 126.352 151.001 123.353 150.141L123 150.031C121.78 149.673 120.822 149.151 120.019 148.127C119.009 146.84 118.792 145.213 119.06 143.625C119.283 142.3 120.016 140.803 121.149 140.021C122.457 139.119 123.8 138.995 125.328 138.861Z"/>
	<path transform="scale(1.00195 1)" d="M269.42 238.534C270.011 238.519 270.668 238.479 271.25 238.596C272.716 238.893 273.757 239.607 274.733 240.705C275.645 241.731 276.283 242.962 277.011 244.119L281.194 250.824L292.78 269.289L298.909 278.86L316.314 251.074L320.76 243.904C321.702 242.389 322.72 240.514 324.174 239.442C325.33 238.59 327.087 238.319 328.47 238.645C330.062 239.019 331.543 239.947 332.346 241.405C333.066 242.712 333.274 244.254 332.809 245.687L332.7 246C332.084 247.828 330.903 249.361 329.881 250.979L325.195 258.482L305.666 289.798C307.801 293.904 310.632 297.796 313.093 301.726L326.832 323.755C328.734 326.782 331.577 330.188 332.764 333.545C333.275 334.992 333.088 336.601 332.415 337.962C331.499 339.814 330.061 340.534 328.208 341.137C326.443 341.056 325.032 340.97 323.625 339.761C322.528 338.82 321.792 337.445 321.03 336.233L317.342 330.262C314.939 326.368 299.997 301.598 298.561 300.872C297.475 303.11 296.007 305.16 294.688 307.266L288.046 317.875L279.413 331.658C277.965 333.961 276.627 336.438 275.016 338.624C274.384 339.482 273.545 340.342 272.558 340.774C271.041 341.437 269.234 341.436 267.721 340.715C266.241 340.009 265.328 338.822 264.875 337.306C264.403 335.724 264.506 334.682 265.159 333.14C266.731 329.43 269.639 325.697 271.793 322.262L284.638 301.68C286.9 298.072 289.495 294.468 291.468 290.709C291.512 290.624 291.973 289.811 291.963 289.717C291.896 289.103 288.973 284.913 288.46 284.087L271.102 256.24L267.174 250.054C266.407 248.841 265.404 247.517 265.014 246.125C264.548 244.456 264.614 242.656 265.547 241.159C266.525 239.592 267.708 238.981 269.42 238.534Z"/>
	<path transform="scale(1.00195 1)" d="M183.416 239.531C184.25 239.493 185.149 239.426 185.964 239.632C187.689 240.068 189.438 241.518 189.982 243.25C190.419 244.643 190.258 246.461 190.265 247.913L190.269 256.986L190.256 296.343L190.263 308.314C190.266 310.63 190.148 313.018 190.41 315.319C190.699 317.854 191.474 320.256 192.79 322.449C195.058 326.225 198.933 329.167 203.243 330.169C206.398 330.901 209.841 330.715 213.067 330.711C216.304 330.706 219.728 330.87 222.904 330.193C224.485 329.856 226.155 329.178 227.511 328.297C229.433 327.047 231.083 325.78 232.435 323.9L232.721 323.494C234.3 321.282 235.211 319.148 235.661 316.46C236.527 311.288 236.006 305.377 236.005 300.124L235.999 262.092L235.999 250.995C235.999 248.838 235.866 246.546 236.126 244.405C236.27 243.224 236.604 242.132 237.422 241.246C238.628 239.941 239.928 239.369 241.698 239.391C243.184 239.409 244.864 239.977 245.887 241.112C248.397 243.898 247.465 251.43 247.453 255.125L247.456 294.693L247.449 308.064C247.445 312.251 247.515 316.4 246.536 320.5C246.174 322.013 245.705 323.452 245.089 324.883C242.043 331.954 236.033 337.614 228.859 340.372C223.861 342.294 218.856 342.201 213.589 342.213C207.734 342.226 201.768 342.361 196.306 339.929L195.875 339.734C190.956 337.558 186.658 333.872 183.652 329.417C181.279 325.899 179.724 321.902 179.186 317.685C178.604 313.118 178.921 308.269 178.919 303.658L178.922 278.181L178.895 254.74L178.898 248C178.903 246.573 178.816 244.94 179.152 243.557C179.475 242.224 180.43 240.901 181.625 240.203C182.149 239.897 182.844 239.713 183.416 239.531Z"/>
</svg>
