<?xml version="1.0" encoding="utf-8" ?>
<svg xmlns="http://www.w3.org/2000/svg" xmlns:xlink="http://www.w3.org/1999/xlink" width="800" height="800">
	<path fill="#1C9BF0" d="M395.83 58.3616C399.154 57.9125 402.916 58.2903 406.25 58.5447C418.364 59.4692 432.537 61.8787 443.613 67.0947C454.891 72.4057 466.36 77.5195 475.977 85.6894C481.881 90.7057 486.984 96.0938 492.371 101.63C496.348 105.717 500.969 111.63 503.6 116.675C503.843 117.142 504.062 117.54 504.374 117.968C505.498 119.504 506.149 121.017 507.056 122.656C508.602 125.449 510.203 127.809 511.168 130.892L511.332 131.437C518.011 128.314 527.303 125.855 534.63 125.091C539.58 124.575 544.422 123.779 549.414 123.582C571.968 122.691 595.169 127.875 615.056 138.585C617.724 140.021 620.331 141.809 622.928 143.389C646.698 157.842 662.707 181.864 671.034 208.066C672.569 212.896 673.285 217.766 674.514 222.625C675.688 227.261 675.921 232.533 676.225 237.305C677.313 254.372 675.267 272.588 668.777 288.535C669.982 289.35 671.471 289.786 672.781 290.43C675.339 291.685 678.078 293.076 680.488 294.572C688.038 299.256 695.56 304.781 701.966 310.941C706.497 315.299 710.392 320.006 714.512 324.699C725.36 337.055 733.468 354.786 737.62 370.588C738.465 373.804 739.407 377.191 739.941 380.469C740.156 381.788 740.104 383.132 740.416 384.437C741.11 387.335 741.174 390.21 741.414 393.164C742.957 412.107 738.372 432.01 730.496 449.219C720.141 471.845 703.502 491.174 682.237 504.188C678.107 506.715 673.68 509.51 669.124 511.19L668.682 511.349C669.702 513.372 670.23 515.331 670.995 517.432C674.411 526.812 675.964 536.323 677.017 546.207C679.383 568.409 673.86 591.93 663.817 611.686C660.66 617.897 656.884 624.391 652.404 629.76C649.148 633.663 646.026 637.669 642.53 641.368C630.384 654.216 613.626 664.07 597.165 670.124C574.499 678.46 549.255 679.48 525.9 673.535C521.383 672.385 516.356 671.085 512.149 669.05L511.456 668.703C509.483 673.612 506.717 677.933 504.03 682.438C500.356 688.599 495.973 694.643 491.155 699.976C469.315 724.146 437.955 739.625 405.373 741.505L404.195 741.64C397.764 742.144 391.114 741.318 384.756 740.407C351.795 735.685 319.918 716.811 300.636 689.491C298.465 686.415 296.297 683.268 294.422 680.001C293.556 678.492 289.121 669.362 288.538 669.008C288.21 668.81 287.806 669.233 287.44 669.345L275.833 672.701C248.322 679.676 218.738 676.655 192.918 665.04C179.67 659.081 166.55 650.554 156.478 640.029C135.257 617.853 124.005 585.275 123.53 554.954C123.437 549.034 124.184 542.779 124.954 536.914C125.786 530.578 127.41 524.283 129.18 518.153C129.462 517.177 131.654 511.913 131.522 511.448C131.448 511.188 131.038 511.207 130.796 511.086L127.991 509.669C99.7313 495.226 78.0545 471.639 66.7045 441.953C61.9242 429.45 58.4779 415.358 58.1808 401.926C57.9967 393.606 59.1745 385.259 60.9313 377.148C66.8171 349.974 81.0183 325.561 102.075 307.353C117.387 294.113 131.666 288.653 131.671 288.634C131.79 288.206 129.616 282.906 129.362 282.075C127.623 276.395 126.142 270.457 125.167 264.597C121.26 241.113 124.705 215.498 134.442 193.809C140.069 181.275 147.729 168.794 157.307 158.856C168.794 146.938 185.627 136.878 201.172 131.34C222.732 123.658 245.01 121.706 267.562 125.425C274.665 126.596 282.268 128.366 288.822 131.394C293.501 121.331 299.008 112.025 306.151 103.495C320.901 85.88 340.506 72.1813 362.337 64.8713C373.318 61.1943 384.337 59.37 395.83 58.3616ZM509.028 269.182L349.148 443.751L273.507 368.153L273.249 368.492C270.872 371.532 267.901 374.229 265.183 376.965L251.351 390.859L236.05 406.232C233.011 409.283 230.003 412.606 226.684 415.346L276.595 464.973L333.817 522.18L346.877 535.211C348.019 536.364 350.225 539.203 351.648 539.681L557.766 314.467L509.028 269.182Z"/>
</svg>
